<svg width="36" height="36" viewBox="0 0 36 36" fill="none" xmlns="http://www.w3.org/2000/svg">
<path d="M32.1408 0H3.8569C2.83399 0 1.85297 0.406351 1.12966 1.12966C0.406351 1.85297 0 2.83399 0 3.8569V32.1408C0 33.1637 0.406351 34.1448 1.12966 34.8681C1.85297 35.5914 2.83399 35.9977 3.8569 35.9977H14.8852V23.7593H9.82304V17.9989H14.8852V13.6084C14.8852 8.61454 17.8582 5.85606 22.4118 5.85606C24.5926 5.85606 26.8729 6.24496 26.8729 6.24496V11.1464H24.3603C21.8847 11.1464 21.1125 12.6828 21.1125 14.2585V17.9989H26.6391L25.7552 23.7593H21.1125V35.9977H32.1408C33.1637 35.9977 34.1448 35.5914 34.8681 34.8681C35.5914 34.1448 35.9977 33.1637 35.9977 32.1408V3.8569C35.9977 2.83399 35.5914 1.85297 34.8681 1.12966C34.1448 0.406351 33.1637 0 32.1408 0Z" fill="#FBFDFF"/>
</svg>
