<svg width="36" height="36" viewBox="0 0 36 36" fill="none" xmlns="http://www.w3.org/2000/svg">
<path d="M33.4265 0H2.56323C1.14903 0 0 1.16511 0 2.59537V33.4024C0 34.8326 1.14903 35.9977 2.56323 35.9977H33.4265C34.8407 35.9977 35.9977 34.8326 35.9977 33.4024V2.59537C35.9977 1.16511 34.8407 0 33.4265 0ZM5.54429 30.8552V13.6759H10.8877V30.8552H5.54429ZM8.21198 11.3296C6.50048 11.3296 5.11843 9.93955 5.11843 8.23609C5.11843 6.53262 6.50048 5.14253 8.21198 5.14253C9.91544 5.14253 11.3055 6.53262 11.3055 8.23609C11.3055 9.94758 9.92348 11.3296 8.21198 11.3296ZM30.8793 30.8552H25.5439V22.4986C25.5439 20.5058 25.5037 17.9426 22.7718 17.9426C19.9916 17.9426 19.5657 20.1121 19.5657 22.3539V30.8552H14.2304V13.6759H19.3488V16.0222H19.4211C20.1362 14.6723 21.8799 13.2501 24.4752 13.2501C29.8749 13.2501 30.8793 16.8097 30.8793 21.4379V30.8552Z" fill="#FBFDFF"/>
</svg>
