<svg width="36" height="36" viewBox="0 0 36 36" fill="none" xmlns="http://www.w3.org/2000/svg">
<path d="M17.9989 13.7129C17.1512 13.7132 16.3228 13.9648 15.6181 14.436C14.9135 14.9071 14.3644 15.5766 14.0403 16.3598C13.7161 17.143 13.6315 18.0047 13.797 18.836C13.9626 19.6673 14.3709 20.4308 14.9704 21.0301C15.5699 21.6293 16.3336 22.0374 17.1649 22.2026C17.9963 22.3678 18.8579 22.2829 19.641 21.9584C20.4241 21.634 21.0934 21.0846 21.5642 20.3799C22.0351 19.6751 22.2864 18.8465 22.2864 17.9989C22.2856 16.8621 21.8335 15.7722 21.0296 14.9686C20.2257 14.165 19.1356 13.7133 17.9989 13.7129ZM28.0196 10.4184C27.8014 9.8655 27.4719 9.36328 27.0516 8.94295C26.6312 8.52262 26.129 8.19313 25.5761 7.97494C23.8887 7.30882 19.8711 7.45828 17.9989 7.45828C16.1267 7.45828 12.1131 7.3032 10.4209 7.97494C9.86791 8.19313 9.36569 8.52262 8.94536 8.94295C8.52502 9.36328 8.19554 9.8655 7.97735 10.4184C7.31204 12.1058 7.46069 16.1275 7.46069 17.9981C7.46069 19.8687 7.31204 23.8855 7.98057 25.5785C8.19876 26.1314 8.52824 26.6336 8.94857 27.054C9.36891 27.4743 9.87112 27.8038 10.4241 28.022C12.1115 28.6881 16.1291 28.5386 18.0021 28.5386C19.8751 28.5386 23.8871 28.6937 25.5793 28.022C26.1322 27.8038 26.6344 27.4743 27.0548 27.054C27.4751 26.6336 27.8046 26.1314 28.0228 25.5785C28.6937 23.8911 28.5394 19.8695 28.5394 17.9989C28.5394 16.1283 28.6937 12.1123 28.0228 10.4193L28.0196 10.4184ZM17.9989 24.5877C16.6957 24.5877 15.4218 24.2013 14.3383 23.4773C13.2547 22.7533 12.4102 21.7243 11.9115 20.5203C11.4128 19.3164 11.2824 17.9916 11.5366 16.7134C11.7908 15.4353 12.4184 14.2613 13.3398 13.3398C14.2613 12.4184 15.4353 11.7908 16.7134 11.5366C17.9916 11.2824 19.3164 11.4128 20.5203 11.9115C21.7243 12.4102 22.7533 13.2547 23.4773 14.3383C24.2013 15.4218 24.5877 16.6957 24.5877 17.9989C24.5888 18.8644 24.4191 19.7217 24.0883 20.5216C23.7576 21.3214 23.2723 22.0482 22.6603 22.6603C22.0482 23.2723 21.3214 23.7576 20.5216 24.0883C19.7217 24.4191 18.8644 24.5888 17.9989 24.5877ZM24.8593 12.6715C24.5551 12.6717 24.2577 12.5816 24.0047 12.4127C23.7516 12.2438 23.5544 12.0037 23.4379 11.7227C23.3214 11.4417 23.2908 11.1324 23.35 10.834C23.4093 10.5357 23.5557 10.2615 23.7707 10.0464C23.9858 9.83121 24.2598 9.68466 24.5582 9.62525C24.8565 9.56585 25.1658 9.59626 25.4469 9.71264C25.7279 9.82901 25.9682 10.0261 26.1372 10.2791C26.3062 10.532 26.3965 10.8294 26.3965 11.1336C26.3973 11.3356 26.3583 11.5358 26.2816 11.7227C26.2049 11.9096 26.092 12.0795 25.9495 12.2227C25.807 12.3659 25.6376 12.4795 25.4511 12.5571C25.2646 12.6346 25.0646 12.6746 24.8625 12.6747L24.8593 12.6715ZM32.1408 0H3.8569C2.83399 0 1.85297 0.406351 1.12966 1.12966C0.406351 1.85297 0 2.83399 0 3.8569V32.1408C0 33.1637 0.406351 34.1448 1.12966 34.8681C1.85297 35.5914 2.83399 35.9977 3.8569 35.9977H32.1408C33.1637 35.9977 34.1448 35.5914 34.8681 34.8681C35.5914 34.1448 35.9977 33.1637 35.9977 32.1408V3.8569C35.9977 2.83399 35.5914 1.85297 34.8681 1.12966C34.1448 0.406351 33.1637 0 32.1408 0ZM30.7652 23.3021C30.6615 25.3615 30.1915 27.1863 28.6881 28.6857C27.1847 30.1851 25.3615 30.6648 23.3045 30.7628C21.1824 30.8825 14.8201 30.8825 12.698 30.7628C10.6386 30.6591 8.82025 30.1883 7.31445 28.6857C5.80865 27.1831 5.33538 25.3575 5.23735 23.3021C5.11762 21.1792 5.11762 14.8161 5.23735 12.6956C5.341 10.6362 5.80544 8.81141 7.31445 7.31204C8.82346 5.81267 10.6466 5.33859 12.698 5.24056C14.8201 5.12084 21.1824 5.12084 23.3045 5.24056C25.3639 5.34422 27.1879 5.81508 28.6881 7.31766C30.1883 8.82025 30.6672 10.6458 30.7652 12.7053C30.8849 14.8201 30.8849 21.1776 30.7652 23.3021Z" fill="#FBFDFF"/>
</svg>
