<svg width="97" height="109" viewBox="0 0 97 109" fill="none" xmlns="http://www.w3.org/2000/svg">
<path d="M95.294 23.7978C95.8336 24.0609 96.2946 24.4987 96.5833 25.0789C96.5975 25.1065 96.6108 25.134 96.624 25.1625C96.6515 25.2233 96.677 25.286 96.7017 25.3486C96.8313 25.6962 96.8891 26.0533 96.8825 26.4047V46.2016C96.8825 47.7686 95.6158 49.0383 94.0548 49.0383C92.4938 49.0383 91.2272 47.7686 91.2272 46.2016V30.9366L78.3557 37.3935C76.9585 38.0944 75.2603 37.5265 74.5626 36.1248C73.864 34.724 74.4301 33.0202 75.8264 32.3195L87.7333 26.3481L75.8264 20.3757C74.4301 19.6748 73.864 17.9711 74.5626 16.5704C75.2603 15.1697 76.9586 14.6018 78.3557 15.3017L95.294 23.7978ZM96.8825 83.0185C96.891 83.4345 96.8077 83.859 96.624 84.2607C96.4849 84.5627 96.2946 84.839 96.0598 85.0755C95.8222 85.3129 95.5676 85.4915 95.294 85.6254L78.3556 94.1211C76.9583 94.8219 75.2601 94.254 74.5624 92.8533C73.8638 91.4516 74.4299 89.7479 75.8262 89.048L87.7332 83.0756L75.8262 77.1032C74.4299 76.4033 73.8638 74.6996 74.5624 73.298C75.2601 71.8972 76.9584 71.3293 78.3556 72.0302L91.227 78.4861V63.2211C91.227 61.6551 92.4936 60.3854 94.0547 60.3854C95.6157 60.3854 96.8823 61.6551 96.8823 63.2211L96.8825 83.0185ZM9.90387 83.0755L21.8098 89.0479C23.2071 89.7478 23.7732 91.4515 23.0746 92.8531C22.3759 94.2539 20.6777 94.8218 19.2814 94.1209L2.34303 85.6253C1.80343 85.3613 1.34242 84.9244 1.05275 84.3442C1.0395 84.3166 1.02625 84.2881 1.013 84.2606C0.985545 84.1998 0.959037 84.1371 0.935372 84.0744C0.804736 83.7269 0.74699 83.3698 0.754563 83.0184V63.2205C0.754563 61.6545 2.02024 60.3848 3.5822 60.3848C5.14321 60.3848 6.40886 61.6545 6.40886 63.2205V78.4855L19.2813 72.0295C20.6776 71.3287 22.376 71.8966 23.0744 73.2973C23.773 74.6991 23.2069 76.4027 21.8097 77.1026L9.90387 83.0755ZM6.40883 30.9368V46.2018C6.40883 47.7688 5.14316 49.0385 3.58216 49.0385C2.0202 49.0385 0.75453 47.7688 0.75453 46.2018V26.4049C0.74601 25.988 0.828367 25.5644 1.01296 25.1627C1.15117 24.8607 1.3424 24.5843 1.57716 24.3478C1.81476 24.1104 2.06845 23.9319 2.343 23.798L19.2814 15.3013C20.6777 14.6014 22.3761 15.1693 23.0745 16.5701C23.7732 17.9709 23.2071 19.6747 21.8098 20.3754L9.90384 26.3477L21.8098 32.3192C23.2071 33.02 23.7732 34.7237 23.0745 36.1244C22.3759 37.5261 20.6776 38.0941 19.2814 37.3932L6.40883 30.9368ZM47.5026 1.14532C47.8955 0.937342 48.3432 0.820541 48.8175 0.820541C49.2927 0.820541 49.7405 0.937351 50.1333 1.14532L67.0461 9.62886C68.4424 10.3297 69.0085 12.0334 68.3108 13.4341C67.6122 14.8349 65.9139 15.4028 64.5177 14.7029L51.6452 8.24597V23.511C51.6452 25.077 50.3796 26.3477 48.8176 26.3477C47.2566 26.3477 45.9909 25.077 45.9909 23.511V8.24597L33.1185 14.7029C31.7222 15.4028 30.0238 14.8349 29.3254 13.4341C28.6268 12.0334 29.1929 10.3295 30.5901 9.62886L47.5026 1.14532ZM50.1332 108.277C49.7403 108.484 49.2926 108.602 48.8174 108.602C48.3431 108.602 47.8953 108.484 47.5025 108.277L30.5897 99.7934C29.1925 99.0925 28.6264 97.3888 29.325 95.9881C30.0236 94.5864 31.7219 94.0185 33.1181 94.7194L45.9906 101.176V85.9113C45.9906 84.3443 47.2562 83.0746 48.8172 83.0746C50.3792 83.0746 51.6449 84.3443 51.6449 85.9113V101.176L64.5173 94.7194C65.9136 94.0185 67.612 94.5864 68.3104 95.9881C69.0081 97.3889 68.442 99.0927 67.0457 99.7934L50.1332 108.277ZM51.645 50.7921V66.0571C51.645 67.6231 50.3793 68.8938 48.8174 68.8938C47.2563 68.8938 45.9907 67.6231 45.9907 66.0571V50.7921L30.5897 43.0666C29.1924 42.3667 28.6263 40.663 29.325 39.2613C30.0236 37.8606 31.7219 37.2926 33.1181 37.9935L48.8172 45.8683L64.5172 37.9935C65.9135 37.2927 67.6119 37.8606 68.3103 39.2613C69.008 40.663 68.4419 42.3667 67.0456 43.0666L51.645 50.7921Z" fill="#000D1A"/>
</svg>
