<svg width="123" height="16" viewBox="0 0 123 16" fill="none" xmlns="http://www.w3.org/2000/svg">
<path d="M8.68522 0.963444V3.61034H3.0706V6.93901H8.52481V9.5859H3.0706V15H0.303394V0.963444H8.68522ZM23.5149 13.1752C22.0979 14.5789 20.3734 15.2807 18.3415 15.2807C16.3095 15.2807 14.585 14.5789 13.168 13.1752C11.7643 11.7449 11.0625 10.0137 11.0625 7.98172C11.0625 5.9364 11.7643 4.2119 13.168 2.80825C14.585 1.39122 16.3095 0.682713 18.3415 0.682713C20.3734 0.682713 22.0979 1.39122 23.5149 2.80825C24.932 4.2119 25.6405 5.9364 25.6405 7.98172C25.6405 10.027 24.932 11.7582 23.5149 13.1752ZM15.1131 11.2903C15.9686 12.1459 17.0448 12.5737 18.3415 12.5737C19.6382 12.5737 20.7143 12.1459 21.5699 11.2903C22.4388 10.4214 22.8733 9.31854 22.8733 7.98172C22.8733 6.64491 22.4388 5.54204 21.5699 4.67311C20.7009 3.80418 19.6248 3.36971 18.3415 3.36971C17.0581 3.36971 15.982 3.80418 15.1131 4.67311C14.2441 5.54204 13.8097 6.64491 13.8097 7.98172C13.8097 9.31854 14.2441 10.4214 15.1131 11.2903ZM31.3552 0.963444V12.3531H36.7091V15H28.588V0.963444H31.3552ZM42.051 0.963444V12.3531H47.405V15H39.2838V0.963444H42.051ZM60.9288 13.1752C59.5118 14.5789 57.7873 15.2807 55.7553 15.2807C53.7233 15.2807 51.9989 14.5789 50.5818 13.1752C49.1782 11.7449 48.4763 10.0137 48.4763 7.98172C48.4763 5.9364 49.1782 4.2119 50.5818 2.80825C51.9989 1.39122 53.7233 0.682713 55.7553 0.682713C57.7873 0.682713 59.5118 1.39122 60.9288 2.80825C62.3458 4.2119 63.0543 5.9364 63.0543 7.98172C63.0543 10.027 62.3458 11.7582 60.9288 13.1752ZM52.5269 11.2903C53.3825 12.1459 54.4586 12.5737 55.7553 12.5737C57.052 12.5737 58.1282 12.1459 58.9837 11.2903C59.8526 10.4214 60.2871 9.31854 60.2871 7.98172C60.2871 6.64491 59.8526 5.54204 58.9837 4.67311C58.1148 3.80418 57.0386 3.36971 55.7553 3.36971C54.472 3.36971 53.3958 3.80418 52.5269 4.67311C51.658 5.54204 51.2235 6.64491 51.2235 7.98172C51.2235 9.31854 51.658 10.4214 52.5269 11.2903ZM71.451 15H68.3028L64.3726 0.963444H67.2802L69.9672 11.3705L72.8948 0.963444H75.2609L78.2086 11.3705L80.8956 0.963444H83.8032L79.873 15H76.7248L74.0779 5.73587L71.451 15Z" fill="url(#paint0_linear_2136_34997)"/>
<path d="M97.6598 15.2807C96.0957 15.2807 94.8123 14.8396 93.8097 13.9573C92.8071 13.075 92.3058 11.8919 92.3058 10.408V0.963444H95.053V10.1875C95.053 10.9361 95.2669 11.5243 95.6946 11.9521C96.1358 12.3665 96.7908 12.5737 97.6598 12.5737C98.5287 12.5737 99.177 12.3665 99.6048 11.9521C100.046 11.5243 100.267 10.9361 100.267 10.1875V0.963444H103.034V10.408C103.034 11.8919 102.532 13.075 101.53 13.9573C100.527 14.8396 99.2372 15.2807 97.6598 15.2807ZM111.322 15.2807C109.945 15.2807 108.782 14.9733 107.833 14.3583C106.884 13.7434 106.208 12.8945 105.807 11.8117L108.174 10.4281C108.722 11.8585 109.798 12.5737 111.402 12.5737C112.151 12.5737 112.712 12.44 113.086 12.1726C113.461 11.9053 113.648 11.5443 113.648 11.0898C113.648 10.5952 113.427 10.2142 112.986 9.94684C112.545 9.66611 111.756 9.36533 110.62 9.04449C109.39 8.67018 108.421 8.23572 107.712 7.7411C106.83 7.08606 106.389 6.12355 106.389 4.85358C106.389 3.57023 106.837 2.56094 107.732 1.82569C108.628 1.06371 109.718 0.682713 111.001 0.682713C112.124 0.682713 113.12 0.95676 113.989 1.50485C114.858 2.05295 115.533 2.8283 116.014 3.83091L113.688 5.17441C113.126 3.97128 112.231 3.36971 111.001 3.36971C110.439 3.36971 109.992 3.50339 109.657 3.77076C109.323 4.02475 109.156 4.35895 109.156 4.77337C109.156 5.21452 109.337 5.57546 109.698 5.85619C110.099 6.13692 110.807 6.43102 111.823 6.73848L112.786 7.05932C112.959 7.11279 113.26 7.22642 113.688 7.40021C114.089 7.54726 114.383 7.68762 114.57 7.8213C115.225 8.22235 115.666 8.63676 115.894 9.06454C116.241 9.626 116.415 10.2877 116.415 11.0497C116.415 12.3464 115.94 13.3758 114.991 14.1378C114.042 14.8997 112.819 15.2807 111.322 15.2807ZM122.095 6.37754C122.095 6.84543 121.928 7.24647 121.594 7.58068C121.26 7.91488 120.859 8.08198 120.391 8.08198C119.923 8.08198 119.522 7.91488 119.188 7.58068C118.853 7.24647 118.686 6.84543 118.686 6.37754C118.686 5.90966 118.853 5.50861 119.188 5.17441C119.522 4.84021 119.923 4.67311 120.391 4.67311C120.859 4.67311 121.26 4.84021 121.594 5.17441C121.928 5.50861 122.095 5.90966 122.095 6.37754ZM122.095 13.5562C122.095 14.0241 121.928 14.4252 121.594 14.7594C121.26 15.0936 120.859 15.2607 120.391 15.2607C119.923 15.2607 119.522 15.0936 119.188 14.7594C118.853 14.4252 118.686 14.0241 118.686 13.5562C118.686 13.0884 118.853 12.6873 119.188 12.3531C119.522 12.0189 119.923 11.8518 120.391 11.8518C120.859 11.8518 121.26 12.0189 121.594 12.3531C121.928 12.6873 122.095 13.0884 122.095 13.5562Z" fill="url(#paint1_linear_2136_34997)"/>
<defs>
<linearGradient id="paint0_linear_2136_34997" x1="164.391" y1="22" x2="162.707" y2="-26.5038" gradientUnits="userSpaceOnUse">
<stop offset="0.0538232" stop-color="#C79491"/>
<stop offset="0.33" stop-color="#EED4D3"/>
<stop offset="0.42" stop-color="#F3D1D0"/>
<stop offset="0.56" stop-color="#CD9EA0"/>
<stop offset="0.709427" stop-color="#B0767B"/>
<stop offset="1" stop-color="#CC9494"/>
</linearGradient>
<linearGradient id="paint1_linear_2136_34997" x1="125" y1="6.5" x2="-1" y2="6.5" gradientUnits="userSpaceOnUse">
<stop stop-color="#B67D7B"/>
<stop offset="0.05" stop-color="#D2A3A0"/>
<stop offset="0.09" stop-color="#E7BEBA"/>
<stop offset="0.12" stop-color="#F3CFCA"/>
<stop offset="0.14" stop-color="#F8D5D0"/>
<stop offset="0.28" stop-color="#D0A09D"/>
<stop offset="0.4" stop-color="#B07574"/>
<stop offset="0.46" stop-color="#BC8A89"/>
<stop offset="0.57" stop-color="#DBC0C0"/>
<stop offset="0.69" stop-color="white"/>
<stop offset="0.83" stop-color="#F8D5D0"/>
<stop offset="0.92" stop-color="#D0A09D"/>
<stop offset="0.99" stop-color="#B07574"/>
</linearGradient>
</defs>
</svg>
