<svg width="225" height="20" viewBox="0 0 225 20" fill="none" xmlns="http://www.w3.org/2000/svg">
<path fill-rule="evenodd" clip-rule="evenodd" d="M8.1063 17.2121H9.77297C11.0053 17.2121 11.9851 17 12.7124 16.5758C13.4396 16.1313 13.8033 15.3636 13.8033 14.2727C13.8033 13.303 13.5103 12.5758 12.9245 12.0909C12.3588 11.6061 11.6012 11.3434 10.6518 11.303L11.773 8.9697C12.5406 8.9899 13.2376 9.14141 13.8639 9.42424C14.4901 9.68687 15.0255 10.0505 15.4699 10.5152C15.9144 10.9798 16.2477 11.5354 16.4699 12.1818C16.7124 12.8283 16.8336 13.5455 16.8336 14.3333C16.8336 16.2323 16.2376 17.6566 15.0457 18.6061C13.874 19.5354 12.2578 20 10.1972 20H7.86387H5.89418H3.50024H1.89418H0.257812V0H3.50024V17.2121H5.89418H8.1063ZM23.0237 3.0303V20H19.7813V3.0303H23.0237ZM28.2744 3.0303V20H34.7895C37.6178 20 39.8097 19.2626 41.3653 17.7879C42.9208 16.3131 43.6986 14.2121 43.6986 11.4848C43.6986 8.79798 42.9208 6.71717 41.3653 5.24242C39.8097 3.76768 37.6178 3.0303 34.7895 3.0303H28.2744ZM34.9107 17.3939H31.4865V5.63636H34.9107C36.7087 5.63636 38.0825 6.14141 39.032 7.15152C39.9815 8.16162 40.4562 9.60606 40.4562 11.4848C40.4562 13.3636 39.9815 14.8182 39.032 15.8485C38.0825 16.8788 36.7087 17.3939 34.9107 17.3939ZM51.2256 3.0303V20H47.9832V3.0303H51.2256ZM60.6681 3.0303L53.9711 20H57.2438L58.8802 15.697H66.2741L67.8802 20H71.2135L64.5166 3.0303H60.6681ZM62.5772 5.57576L65.3954 13.2121H59.759L62.5772 5.57576ZM87.0518 11.3333C86.1023 11.2121 85.2438 10.9091 84.4761 10.4242C83.7084 9.91919 83.0923 9.26263 82.6276 8.45455C82.163 7.64646 81.9306 6.71717 81.9306 5.66667C81.9306 3.88889 82.5266 2.50505 83.7185 1.51515C84.9104 0.50505 86.5266 0 88.567 0H90.4761H92.8397H94.5064H96.1124H102.961V2.78788H96.1124V20H92.8397V2.78788H90.4761H89.0518C87.8195 2.78788 86.8397 3.0202 86.1125 3.48485C85.3852 3.92929 85.0215 4.67677 85.0215 5.72727C85.0215 6.57576 85.3044 7.29293 85.87 7.87879C86.4559 8.44444 87.2236 8.79798 88.1731 8.93939L87.0518 11.3333ZM107.573 3.0303L100.876 20H104.148L105.785 15.697H113.179L114.785 20H118.118L111.421 3.0303H107.573ZM109.482 5.57576L112.3 13.2121H106.664L109.482 5.57576ZM124.557 17.3636H134.284V20H121.314V3.0303H124.557V17.3636ZM143.676 3.0303L136.979 20H140.252L141.888 15.697H149.282L150.888 20H154.221L147.524 3.0303H143.676ZM145.585 5.57576L148.403 13.2121H142.767L145.585 5.57576ZM170.258 3.0303L163.621 20H159.834L153.167 3.0303H156.621L160.652 13.8182L161.743 17.3636H161.773L162.864 13.8485L166.924 3.0303H170.258ZM173.457 3.0303V20H186.972V17.4545H176.669V12.6667H184.487V10.1818H176.669V5.57576H186.669V3.0303H173.457ZM190.887 20V3.0303H198.402C200.362 3.0303 201.907 3.49495 203.038 4.42424C204.19 5.33333 204.766 6.59596 204.766 8.21212C204.766 9.84848 204.19 11.1212 203.038 12.0303C202.473 12.485 201.803 12.8259 201.03 13.0532L205.735 20H202.19L197.84 13.3939H194.099V20H190.887ZM194.099 11H198.16C199.291 11 200.139 10.7778 200.705 10.3333C201.271 9.86869 201.553 9.18182 201.553 8.27273C201.553 7.36364 201.271 6.68687 200.705 6.24242C200.139 5.77778 199.291 5.54545 198.16 5.54545H194.099V11ZM213.929 3.0303L207.232 20H210.505L212.141 15.697H219.535L221.141 20H224.475L217.778 3.0303H213.929ZM218.656 13.2121H213.02L215.838 5.57576L218.656 13.2121Z" fill="#FBFDFF"/>
</svg>
