<svg width="20" height="24" viewBox="0 0 20 24" fill="none" xmlns="http://www.w3.org/2000/svg">
<path d="M9.99659 0C11.6809 0 13.2015 0.663931 14.2994 1.73281C15.3972 2.80169 16.0791 4.28218 16.0791 5.92202C16.0791 7.56185 15.3972 9.00916 14.2994 10.078C13.7811 10.5826 13.2015 10.9942 12.5537 11.273C14.2994 11.7112 15.82 12.5942 17.0542 13.7959C18.8681 15.5618 20 17.9851 20 20.6606V21.8556C20 22.4199 19.7409 22.9577 19.3522 23.3693C18.9635 23.7477 18.4112 24 17.7975 24H2.20252C1.58882 24 1.03648 23.7477 0.647801 23.3693L0.613705 23.3096C0.225024 22.9311 0 22.4266 0 21.8623V20.6672C0 17.9917 1.13195 15.5618 2.94579 13.8025C4.1732 12.6075 5.72793 11.7245 7.4463 11.2797C6.7985 10.9942 6.21889 10.5892 5.70065 10.0846C4.63007 9.01576 3.95499 7.56186 3.95499 5.92866C3.95499 4.29547 4.63689 2.80833 5.70065 1.73946C6.7985 0.670576 8.31913 0.00664548 10.0034 0.00664548L9.99659 0ZM16.1132 14.712C14.5585 13.1984 12.39 12.2556 9.99659 12.2556C7.60314 12.2556 5.4688 13.1984 3.87999 14.712C2.29117 16.2589 1.32288 18.3635 1.32288 20.6672V21.8623C1.32288 22.0813 1.41834 22.2739 1.5479 22.4266L1.582 22.4597C1.74566 22.5859 1.97068 22.6788 2.1957 22.6788H17.7907C18.0157 22.6788 18.2407 22.5859 18.4044 22.4597C18.568 22.3004 18.6635 22.0813 18.6635 21.8623V20.6672C18.6635 18.3701 17.6952 16.2589 16.1064 14.712H16.1132ZM13.3652 2.64899C12.4923 1.8324 11.3263 1.29461 9.99659 1.29461C8.66689 1.29461 7.50767 1.8324 6.66212 2.64899C5.81657 3.46559 5.27105 4.63405 5.27105 5.92202C5.27105 7.20998 5.7893 8.34522 6.66212 9.16846C7.50085 10.0182 8.70099 10.5228 9.99659 10.5228C11.2922 10.5228 12.4855 10.0182 13.3652 9.16846C14.2039 8.35186 14.7562 7.18343 14.7562 5.92202C14.7562 4.66061 14.2039 3.49879 13.3652 2.64899Z" fill="#FBFDFF"/>
</svg>
