<svg width="350" height="349" viewBox="0 0 350 349" fill="none" xmlns="http://www.w3.org/2000/svg">
<g clip-path="url(#clip0_2136_37960)">
<rect x="0.649658" y="0.108398" width="348.806" height="348.806" rx="10.5699" fill="#F5FAFE"/>
<path d="M12.636 1.16539H337.469C343.505 1.16539 348.398 6.05861 348.398 12.0947V59.2997H1.70664V12.0947C1.70664 6.0586 6.59987 1.16539 12.636 1.16539Z" fill="#E7EDF2"/>
<path d="M56.6403 26.9446C55.3338 26.9446 54.2303 26.6529 53.3298 26.0694C52.4292 25.4859 51.7887 24.6805 51.4082 23.6531L53.6532 22.3403C54.1733 23.6975 55.1943 24.3761 56.7164 24.3761C57.4267 24.3761 57.9594 24.2493 58.3145 23.9956C58.6697 23.7419 58.8473 23.3994 58.8473 22.9682C58.8473 22.4989 58.638 22.1374 58.2194 21.8837C57.8008 21.6174 57.0525 21.332 55.9744 21.0276C54.8075 20.6724 53.8879 20.2602 53.2156 19.7909C52.3785 19.1694 51.9599 18.2562 51.9599 17.0512C51.9599 15.8335 52.3848 14.8759 53.2347 14.1783C54.0845 13.4553 55.1182 13.0938 56.3359 13.0938C57.4013 13.0938 58.3463 13.3538 59.1707 13.8739C59.9952 14.3939 60.6357 15.1296 61.0923 16.0809L58.8853 17.3556C58.3526 16.2141 57.5028 15.6433 56.3359 15.6433C55.8031 15.6433 55.3782 15.7701 55.0611 16.0238C54.744 16.2648 54.5855 16.5819 54.5855 16.9751C54.5855 17.3937 54.7567 17.7361 55.0992 18.0025C55.4797 18.2688 56.1519 18.5479 57.1159 18.8396L58.0292 19.144C58.194 19.1948 58.4794 19.3026 58.8853 19.4675C59.2658 19.607 59.5449 19.7402 59.7225 19.867C60.344 20.2475 60.7625 20.6407 60.9782 21.0466C61.3079 21.5793 61.4728 22.2072 61.4728 22.9301C61.4728 24.1605 61.0225 25.1371 60.122 25.8601C59.2214 26.5831 58.0609 26.9446 56.6403 26.9446ZM70.561 18.2879V17.1653H73.0154V26.6782H70.561V25.5557C69.8254 26.4816 68.7916 26.9446 67.4598 26.9446C66.1915 26.9446 65.1006 26.4626 64.1874 25.4986C63.2869 24.522 62.8366 23.3297 62.8366 21.9218C62.8366 20.5266 63.2869 19.3406 64.1874 18.364C65.1006 17.3873 66.1915 16.899 67.4598 16.899C68.7916 16.899 69.8254 17.3619 70.561 18.2879ZM66.0329 23.8624C66.5276 24.3571 67.1554 24.6044 67.9165 24.6044C68.6775 24.6044 69.3053 24.3571 69.8 23.8624C70.3074 23.3551 70.561 22.7082 70.561 21.9218C70.561 21.1354 70.3074 20.4949 69.8 20.0002C69.3053 19.4928 68.6775 19.2391 67.9165 19.2391C67.1554 19.2391 66.5276 19.4928 66.0329 20.0002C65.5382 20.4949 65.2909 21.1354 65.2909 21.9218C65.2909 22.7082 65.5382 23.3551 66.0329 23.8624ZM85.7622 16.899C86.853 16.899 87.7218 17.2541 88.3687 17.9644C89.0283 18.6747 89.358 19.626 89.358 20.8183V26.6782H86.9037V20.9895C86.9037 20.4187 86.7642 19.9748 86.4852 19.6577C86.2061 19.3406 85.8129 19.1821 85.3056 19.1821C84.7475 19.1821 84.3099 19.366 83.9928 19.7338C83.6884 20.1017 83.5362 20.6344 83.5362 21.332V26.6782H81.0818V20.9895C81.0818 20.4187 80.9423 19.9748 80.6633 19.6577C80.3842 19.3406 79.991 19.1821 79.4837 19.1821C78.9383 19.1821 78.5007 19.3723 78.1709 19.7528C77.8538 20.1207 77.6953 20.6471 77.6953 21.332V26.6782H75.2409V17.1653H77.6953V18.1737C78.266 17.3239 79.1476 16.899 80.3398 16.899C81.5194 16.899 82.3819 17.3556 82.9273 18.2688C83.5488 17.3556 84.4938 16.899 85.7622 16.899ZM101.964 16.899C103.055 16.899 103.923 17.2541 104.57 17.9644C105.23 18.6747 105.56 19.626 105.56 20.8183V26.6782H103.105V20.9895C103.105 20.4187 102.966 19.9748 102.687 19.6577C102.408 19.3406 102.015 19.1821 101.507 19.1821C100.949 19.1821 100.512 19.366 100.194 19.7338C99.89 20.1017 99.7378 20.6344 99.7378 21.332V26.6782H97.2835V20.9895C97.2835 20.4187 97.1439 19.9748 96.8649 19.6577C96.5859 19.3406 96.1927 19.1821 95.6853 19.1821C95.1399 19.1821 94.7023 19.3723 94.3725 19.7528C94.0554 20.1207 93.8969 20.6471 93.8969 21.332V26.6782H91.4426V17.1653H93.8969V18.1737C94.4677 17.3239 95.3492 16.899 96.5415 16.899C97.7211 16.899 98.5836 17.3556 99.129 18.2688C99.7505 17.3556 100.695 16.899 101.964 16.899ZM108.862 16.0238C108.456 16.0238 108.101 15.8779 107.796 15.5862C107.505 15.2818 107.359 14.9266 107.359 14.5208C107.359 14.1149 107.505 13.7597 107.796 13.4553C108.101 13.1509 108.456 12.9987 108.862 12.9987C109.28 12.9987 109.636 13.1509 109.927 13.4553C110.232 13.7597 110.384 14.1149 110.384 14.5208C110.384 14.9266 110.232 15.2818 109.927 15.5862C109.636 15.8779 109.28 16.0238 108.862 16.0238ZM110.099 26.6782H107.644V17.1653H110.099V26.6782ZM60.6547 46.1204C60.6547 47.1605 60.3122 48.0166 59.6273 48.6889C58.9424 49.3611 58.0545 49.7607 56.9637 49.8875V51.5808H55.7651V49.9065C54.725 49.8304 53.8371 49.545 53.1015 49.0504C52.3785 48.5557 51.8521 47.8898 51.5223 47.0527L53.0444 46.1775C53.4757 47.3571 54.3826 48.023 55.7651 48.1752V43.571C55.1943 43.368 54.7314 43.1841 54.3762 43.0192C54.0337 42.8416 53.6723 42.607 53.2917 42.3153C52.9112 42.0235 52.6258 41.6684 52.4356 41.2498C52.258 40.8186 52.1692 40.3239 52.1692 39.7658C52.1692 38.7384 52.5117 37.9013 53.1966 37.2544C53.8815 36.6075 54.7377 36.2334 55.7651 36.1319V34.4576H56.9637V36.1509C57.7247 36.2524 58.4033 36.5187 58.9995 36.95C59.5956 37.3812 60.0586 37.9647 60.3884 38.7004L58.9043 39.5375C58.5365 38.6116 57.8896 38.0598 56.9637 37.8823V42.2582C57.5472 42.4738 58.0101 42.6641 58.3526 42.8289C58.6951 42.9938 59.0692 43.2285 59.4751 43.5329C59.881 43.8246 60.1791 44.1861 60.3693 44.6174C60.5596 45.0486 60.6547 45.5496 60.6547 46.1204ZM53.9196 39.7658C53.9196 40.2478 54.0655 40.641 54.3572 40.9454C54.6489 41.2498 55.1182 41.5352 55.7651 41.8016V37.8632C55.207 37.9393 54.7567 38.1486 54.4143 38.4911C54.0845 38.8209 53.9196 39.2458 53.9196 39.7658ZM56.9637 48.1371C57.5725 48.0483 58.0418 47.8264 58.3716 47.4712C58.7141 47.1034 58.8853 46.6595 58.8853 46.1394C58.8853 45.6194 58.7268 45.2072 58.4097 44.9028C58.1053 44.5857 57.6233 44.2876 56.9637 44.0085V48.1371ZM67.5764 36.3602C68.8067 36.3602 69.8278 36.7724 70.6395 37.5969C71.464 38.4086 71.8762 39.4233 71.8762 40.641C71.8762 41.846 71.464 42.8607 70.6395 43.6851C69.8278 44.5096 68.8067 44.9218 67.5764 44.9218H64.5132V49.6782H62.7438V36.3602H67.5764ZM67.5764 43.2665C68.312 43.2665 68.9209 43.0192 69.4028 42.5245C69.8848 42.0172 70.1258 41.3893 70.1258 40.641C70.1258 39.88 69.8848 39.2521 69.4028 38.7574C68.9209 38.2628 68.312 38.0154 67.5764 38.0154H64.5132V43.2665H67.5764ZM75.2457 41.7635C75.7911 40.5839 76.7804 39.9941 78.2137 39.9941V41.7255C77.4019 41.6874 76.7043 41.903 76.1209 42.3723C75.5374 42.8416 75.2457 43.5963 75.2457 44.6364V49.6782H73.5904V40.1653H75.2457V41.7635ZM80.6704 38.434C80.3533 38.434 80.087 38.3262 79.8713 38.1106C79.6557 37.8949 79.5479 37.6349 79.5479 37.3305C79.5479 37.0261 79.6557 36.7661 79.8713 36.5504C80.087 36.3221 80.3533 36.208 80.6704 36.208C80.9748 36.208 81.2348 36.3221 81.4505 36.5504C81.6661 36.7661 81.7739 37.0261 81.7739 37.3305C81.7739 37.6349 81.6661 37.8949 81.4505 38.1106C81.2348 38.3262 80.9748 38.434 80.6704 38.434ZM79.8333 49.6782V40.1653H81.4885V49.6782H79.8333ZM88.4848 49.9256C87.0515 49.9256 85.8592 49.4499 84.9079 48.4986C83.9567 47.5347 83.481 46.3424 83.481 44.9218C83.481 43.5012 83.9567 42.3153 84.9079 41.364C85.8592 40.4 87.0515 39.918 88.4848 39.918C89.4234 39.918 90.2669 40.1463 91.0152 40.6029C91.7636 41.0469 92.3217 41.6494 92.6895 42.4104L91.3006 43.2095C91.0596 42.7021 90.6854 42.2962 90.1781 41.9918C89.6834 41.6874 89.119 41.5352 88.4848 41.5352C87.5335 41.5352 86.7344 41.8586 86.0875 42.5055C85.4534 43.1524 85.1363 43.9578 85.1363 44.9218C85.1363 45.8731 85.4534 46.6722 86.0875 47.319C86.7344 47.9659 87.5335 48.2893 88.4848 48.2893C89.119 48.2893 89.6898 48.1435 90.1971 47.8517C90.7045 47.5473 91.0913 47.1415 91.3577 46.6341L92.7656 47.4522C92.3597 48.2006 91.7762 48.803 91.0152 49.2597C90.2542 49.7036 89.4107 49.9256 88.4848 49.9256ZM95.4304 45.6828C95.5953 46.5326 95.9821 47.1922 96.591 47.6615C97.2125 48.1308 97.9735 48.3654 98.874 48.3654C100.13 48.3654 101.043 47.9025 101.614 46.9766L103.022 47.7756C102.096 49.2089 100.701 49.9256 98.836 49.9256C97.3266 49.9256 96.0963 49.4563 95.145 48.5177C94.2064 47.5664 93.7371 46.3677 93.7371 44.9218C93.7371 43.4885 94.2001 42.2962 95.126 41.3449C96.0519 40.3937 97.2505 39.918 98.7218 39.918C100.117 39.918 101.252 40.4127 102.127 41.402C103.015 42.3787 103.459 43.5583 103.459 44.9408C103.459 45.1818 103.44 45.4291 103.402 45.6828H95.4304ZM98.7218 41.4781C97.834 41.4781 97.0983 41.7318 96.5149 42.2391C95.9314 42.7338 95.5699 43.3997 95.4304 44.2369H101.785C101.645 43.3363 101.29 42.6514 100.72 42.1821C100.149 41.7128 99.4829 41.4781 98.7218 41.4781ZM118.718 48.6508C117.792 49.5006 116.594 49.9256 115.122 49.9256C113.651 49.9256 112.446 49.5006 111.507 48.6508C110.581 47.7883 110.118 46.6404 110.118 45.2072V36.3602H111.888V45.1311C111.888 46.0697 112.167 46.818 112.725 47.3761C113.283 47.9215 114.082 48.1942 115.122 48.1942C116.162 48.1942 116.961 47.9215 117.519 47.3761C118.078 46.818 118.357 46.0697 118.357 45.1311V36.3602H120.107V45.2072C120.107 46.6404 119.644 47.7883 118.718 48.6508ZM127.112 49.9256C125.869 49.9256 124.804 49.6338 123.916 49.0504C123.041 48.4669 122.426 47.6678 122.07 46.6531L123.593 45.7779C124.113 47.3888 125.299 48.1942 127.15 48.1942C128.064 48.1942 128.761 48.0103 129.243 47.6425C129.725 47.262 129.966 46.7609 129.966 46.1394C129.966 45.5052 129.725 45.0296 129.243 44.7125C128.761 44.3954 127.956 44.0593 126.827 43.7041C126.269 43.5266 125.844 43.387 125.552 43.2856C125.26 43.1714 124.893 43.0065 124.449 42.7909C124.017 42.5626 123.694 42.3343 123.478 42.106C123.263 41.865 123.066 41.5542 122.889 41.1737C122.724 40.7932 122.641 40.3619 122.641 39.88C122.641 38.7257 123.047 37.8125 123.859 37.1402C124.671 36.4553 125.66 36.1129 126.827 36.1129C127.88 36.1129 128.793 36.3792 129.567 36.9119C130.353 37.4447 130.943 38.1486 131.336 39.0238L129.852 39.88C129.281 38.5101 128.273 37.8252 126.827 37.8252C126.104 37.8252 125.52 38.0027 125.077 38.3579C124.633 38.713 124.411 39.195 124.411 39.8039C124.411 40.3873 124.62 40.8312 125.038 41.1357C125.457 41.4401 126.18 41.7572 127.207 42.0869C127.575 42.2011 127.835 42.2835 127.987 42.3343C128.14 42.385 128.374 42.4738 128.691 42.6006C129.021 42.7275 129.262 42.8289 129.414 42.9051C129.567 42.9812 129.77 43.089 130.023 43.2285C130.29 43.368 130.486 43.5012 130.613 43.628C130.74 43.7549 130.886 43.9134 131.051 44.1037C131.228 44.2812 131.355 44.4652 131.431 44.6554C131.507 44.8457 131.571 45.0676 131.621 45.3213C131.685 45.5623 131.717 45.8223 131.717 46.1014C131.717 47.2683 131.292 48.2006 130.442 48.8982C129.592 49.5831 128.482 49.9256 127.112 49.9256ZM138.913 36.3602C140.727 36.3602 142.23 37.0071 143.422 38.3008C144.627 39.5819 145.229 41.1547 145.229 43.0192C145.229 44.8837 144.627 46.4629 143.422 47.7566C142.23 49.0377 140.727 49.6782 138.913 49.6782H133.719V36.3602H138.913ZM138.913 48.004C140.27 48.004 141.38 47.5283 142.242 46.577C143.105 45.6257 143.536 44.4398 143.536 43.0192C143.536 41.5986 143.105 40.4127 142.242 39.4614C141.38 38.5101 140.27 38.0345 138.913 38.0345H135.488V48.004H138.913Z" fill="#202020"/>
<path d="M12.636 1.16539H337.469C343.505 1.16539 348.398 6.05861 348.398 12.0947V59.2997H1.70664V12.0947C1.70664 6.0586 6.59987 1.16539 12.636 1.16539Z" stroke="url(#paint0_linear_2136_37960)" stroke-width="2.11397"/>
</g>
<rect x="1.70664" y="1.16539" width="346.692" height="346.692" rx="9.51288" stroke="url(#paint1_linear_2136_37960)" stroke-width="2.11397"/>
<defs>
<linearGradient id="paint0_linear_2136_37960" x1="0.649658" y1="30.2338" x2="349.459" y2="30.2338" gradientUnits="userSpaceOnUse">
<stop stop-color="#C79491"/>
<stop offset="0.33" stop-color="#EED4D3"/>
<stop offset="0.42" stop-color="#F3D1D0"/>
<stop offset="0.56" stop-color="#CD9EA0"/>
<stop offset="0.66" stop-color="#B0767B"/>
<stop offset="1" stop-color="#CC9494"/>
</linearGradient>
<linearGradient id="paint1_linear_2136_37960" x1="458.5" y1="348.914" x2="382.91" y2="-186.833" gradientUnits="userSpaceOnUse">
<stop offset="0.0538232" stop-color="#C79491"/>
<stop offset="0.33" stop-color="#EED4D3"/>
<stop offset="0.42" stop-color="#F3D1D0"/>
<stop offset="0.56" stop-color="#CD9EA0"/>
<stop offset="0.709427" stop-color="#B0767B"/>
<stop offset="1" stop-color="#CC9494"/>
</linearGradient>
<clipPath id="clip0_2136_37960">
<rect x="0.649658" y="0.108398" width="348.806" height="348.806" rx="10.5699" fill="white"/>
</clipPath>
</defs>
</svg>
