<svg width="350" height="349" viewBox="0 0 350 349" fill="none" xmlns="http://www.w3.org/2000/svg">
<g clip-path="url(#clip0_2136_37966)">
<rect x="0.476318" y="0.108398" width="348.806" height="348.806" rx="10.5699" fill="#F5FAFE"/>
<path d="M12.4626 1.16539H337.296C343.332 1.16539 348.225 6.05861 348.225 12.0947V59.2997H1.53331V12.0947C1.53331 6.0586 6.42653 1.16539 12.4626 1.16539Z" fill="#E7EDF2"/>
<path d="M51.9198 13.3602H56.8855C58.1539 13.3602 59.232 13.7914 60.1199 14.6539C60.9951 15.5164 61.4327 16.5755 61.4327 17.8312C61.4327 19.0869 60.9951 20.146 60.1199 21.0085C59.232 21.871 58.1539 22.3023 56.8855 22.3023H54.5453V26.6782H51.9198V13.3602ZM54.5453 19.848H56.8855C57.4436 19.848 57.9066 19.6577 58.2744 19.2772C58.6422 18.884 58.8261 18.402 58.8261 17.8312C58.8261 17.2478 58.6422 16.7658 58.2744 16.3853C57.9066 16.0048 57.4436 15.8145 56.8855 15.8145H54.5453V19.848ZM65.2778 17.1653V18.8016C65.4934 18.2054 65.8613 17.7551 66.3813 17.4507C66.9013 17.1336 67.4975 16.9751 68.1697 16.9751V19.7148C67.4214 19.6133 66.7491 19.7655 66.153 20.1714C65.5695 20.5646 65.2778 21.2178 65.2778 22.1311V26.6782H62.8235V17.1653H65.2778ZM77.3571 25.4986C76.3931 26.4626 75.2008 26.9446 73.7802 26.9446C72.3596 26.9446 71.1674 26.4626 70.2034 25.4986C69.2394 24.5347 68.7574 23.3424 68.7574 21.9218C68.7574 20.5139 69.2394 19.3279 70.2034 18.364C71.18 17.3873 72.3723 16.899 73.7802 16.899C75.1881 16.899 76.3804 17.3873 77.3571 18.364C78.3337 19.3406 78.8221 20.5266 78.8221 21.9218C78.8221 23.3297 78.3337 24.522 77.3571 25.4986ZM71.9347 23.8053C72.4294 24.3 73.0446 24.5473 73.7802 24.5473C74.5159 24.5473 75.1311 24.3 75.6257 23.8053C76.1204 23.3107 76.3677 22.6828 76.3677 21.9218C76.3677 21.1608 76.1204 20.5329 75.6257 20.0382C75.1311 19.5436 74.5159 19.2962 73.7802 19.2962C73.0446 19.2962 72.4294 19.5436 71.9347 20.0382C71.4527 20.5456 71.2118 21.1734 71.2118 21.9218C71.2118 22.6701 71.4527 23.298 71.9347 23.8053ZM87.7594 18.2879V13.3602H90.2137V26.6782H87.7594V25.5557C87.0364 26.4816 86.009 26.9446 84.6772 26.9446C83.3962 26.9446 82.299 26.4626 81.3858 25.4986C80.4852 24.522 80.0349 23.3297 80.0349 21.9218C80.0349 20.5266 80.4852 19.3406 81.3858 18.364C82.299 17.3873 83.3962 16.899 84.6772 16.899C86.009 16.899 87.0364 17.3619 87.7594 18.2879ZM83.2313 23.8624C83.7513 24.3571 84.3855 24.6044 85.1339 24.6044C85.8949 24.6044 86.5227 24.3571 87.0174 23.8624C87.5121 23.3551 87.7594 22.7082 87.7594 21.9218C87.7594 21.1354 87.5121 20.4949 87.0174 20.0002C86.5227 19.4928 85.8949 19.2391 85.1339 19.2391C84.3728 19.2391 83.7386 19.4928 83.2313 20.0002C82.7366 20.4949 82.4893 21.1354 82.4893 21.9218C82.4893 22.7082 82.7366 23.3551 83.2313 23.8624ZM98.7368 22.3023V17.1653H101.191V26.6782H98.7368V25.6128C98.1534 26.5006 97.2084 26.9446 95.902 26.9446C94.8619 26.9446 93.9994 26.5958 93.3145 25.8982C92.6422 25.1879 92.3061 24.2239 92.3061 23.0063V17.1653H94.7604V22.7018C94.7604 23.3233 94.9253 23.8053 95.2551 24.1478C95.5976 24.4903 96.0605 24.6615 96.644 24.6615C97.2909 24.6615 97.7982 24.4649 98.1661 24.0717C98.5466 23.6658 98.7368 23.076 98.7368 22.3023ZM107.967 26.9446C106.534 26.9446 105.335 26.4626 104.371 25.4986C103.42 24.5347 102.944 23.3424 102.944 21.9218C102.944 20.5012 103.42 19.3089 104.371 18.3449C105.335 17.381 106.534 16.899 107.967 16.899C108.893 16.899 109.737 17.1209 110.498 17.5649C111.259 18.0088 111.836 18.605 112.229 19.3533L110.117 20.59C109.927 20.1968 109.635 19.886 109.242 19.6577C108.861 19.4294 108.43 19.3153 107.948 19.3153C107.212 19.3153 106.604 19.5626 106.122 20.0573C105.64 20.5392 105.399 21.1608 105.399 21.9218C105.399 22.6574 105.64 23.279 106.122 23.7863C106.604 24.2683 107.212 24.5093 107.948 24.5093C108.443 24.5093 108.88 24.4015 109.261 24.1858C109.654 23.9575 109.946 23.6468 110.136 23.2536L112.267 24.4712C111.848 25.2323 111.252 25.8347 110.479 26.2787C109.718 26.7226 108.88 26.9446 107.967 26.9446ZM119.006 17.1653V19.5245H116.856V23.4819C116.856 23.8117 116.939 24.0527 117.104 24.2049C117.269 24.3571 117.51 24.4459 117.827 24.4712C118.144 24.4839 118.537 24.4776 119.006 24.4522V26.6782C117.345 26.8685 116.159 26.7163 115.449 26.2216C114.751 25.7143 114.402 24.801 114.402 23.4819V19.5245H112.747V17.1653H114.402V15.2437L116.856 14.5017V17.1653H119.006ZM133.462 21.4842V13.3602H136.087V26.6782H134.089L128.382 18.5352V26.6782H125.756V13.3602H127.754L133.462 21.4842ZM145.673 18.2879V17.1653H148.128V26.6782H145.673V25.5557C144.938 26.4816 143.904 26.9446 142.572 26.9446C141.304 26.9446 140.213 26.4626 139.3 25.4986C138.399 24.522 137.949 23.3297 137.949 21.9218C137.949 20.5266 138.399 19.3406 139.3 18.364C140.213 17.3873 141.304 16.899 142.572 16.899C143.904 16.899 144.938 17.3619 145.673 18.2879ZM141.145 23.8624C141.64 24.3571 142.268 24.6044 143.029 24.6044C143.79 24.6044 144.418 24.3571 144.912 23.8624C145.42 23.3551 145.673 22.7082 145.673 21.9218C145.673 21.1354 145.42 20.4949 144.912 20.0002C144.418 19.4928 143.79 19.2391 143.029 19.2391C142.268 19.2391 141.64 19.4928 141.145 20.0002C140.65 20.4949 140.403 21.1354 140.403 21.9218C140.403 22.7082 140.65 23.3551 141.145 23.8624ZM160.874 16.899C161.965 16.899 162.834 17.2541 163.481 17.9644C164.14 18.6747 164.47 19.626 164.47 20.8183V26.6782H162.016V20.9895C162.016 20.4187 161.876 19.9748 161.597 19.6577C161.318 19.3406 160.925 19.1821 160.418 19.1821C159.86 19.1821 159.422 19.366 159.105 19.7338C158.801 20.1017 158.648 20.6344 158.648 21.332V26.6782H156.194V20.9895C156.194 20.4187 156.055 19.9748 155.775 19.6577C155.496 19.3406 155.103 19.1821 154.596 19.1821C154.05 19.1821 153.613 19.3723 153.283 19.7528C152.966 20.1207 152.807 20.6471 152.807 21.332V26.6782H150.353V17.1653H152.807V18.1737C153.378 17.3239 154.26 16.899 155.452 16.899C156.632 16.899 157.494 17.3556 158.04 18.2688C158.661 17.3556 159.606 16.899 160.874 16.899ZM175.801 22.9301H168.629C168.946 24.1224 169.84 24.7186 171.311 24.7186C172.25 24.7186 172.96 24.4015 173.442 23.7673L175.421 24.9088C174.482 26.266 173.1 26.9446 171.273 26.9446C169.7 26.9446 168.438 26.4689 167.487 25.5177C166.536 24.5664 166.06 23.3677 166.06 21.9218C166.06 20.5012 166.529 19.3089 167.468 18.3449C168.394 17.381 169.599 16.899 171.083 16.899C172.491 16.899 173.639 17.381 174.527 18.3449C175.44 19.3089 175.896 20.5012 175.896 21.9218C175.896 22.1881 175.865 22.5243 175.801 22.9301ZM168.591 21.0276H173.442C173.303 20.4061 173.017 19.9304 172.586 19.6006C172.167 19.2709 171.666 19.106 171.083 19.106C170.423 19.106 169.878 19.2772 169.447 19.6197C169.015 19.9494 168.73 20.4187 168.591 21.0276ZM60.4814 46.1204C60.4814 47.1605 60.1389 48.0166 59.454 48.6889C58.7691 49.3611 57.8812 49.7607 56.7904 49.8875V51.5808H55.5918V49.9065C54.5517 49.8304 53.6638 49.545 52.9281 49.0504C52.2052 48.5557 51.6788 47.8898 51.349 47.0527L52.8711 46.1775C53.3023 47.3571 54.2092 48.023 55.5918 48.1752V43.571C55.021 43.368 54.558 43.1841 54.2029 43.0192C53.8604 42.8416 53.4989 42.607 53.1184 42.3153C52.7379 42.0235 52.4525 41.6684 52.2622 41.2498C52.0847 40.8186 51.9959 40.3239 51.9959 39.7658C51.9959 38.7384 52.3383 37.9013 53.0233 37.2544C53.7082 36.6075 54.5644 36.2334 55.5918 36.1319V34.4576H56.7904V36.1509C57.5514 36.2524 58.23 36.5187 58.8261 36.95C59.4223 37.3812 59.8852 37.9647 60.215 38.7004L58.731 39.5375C58.3632 38.6116 57.7163 38.0598 56.7904 37.8823V42.2582C57.3738 42.4738 57.8368 42.6641 58.1793 42.8289C58.5217 42.9938 58.8959 43.2285 59.3018 43.5329C59.7077 43.8246 60.0057 44.1861 60.196 44.6174C60.3862 45.0486 60.4814 45.5496 60.4814 46.1204ZM53.7463 39.7658C53.7463 40.2478 53.8921 40.641 54.1838 40.9454C54.4756 41.2498 54.9449 41.5352 55.5918 41.8016V37.8632C55.0337 37.9393 54.5834 38.1486 54.2409 38.4911C53.9111 38.8209 53.7463 39.2458 53.7463 39.7658ZM56.7904 48.1371C57.3992 48.0483 57.8685 47.8264 58.1983 47.4712C58.5407 47.1034 58.712 46.6595 58.712 46.1394C58.712 45.6194 58.5534 45.2072 58.2363 44.9028C57.9319 44.5857 57.4499 44.2876 56.7904 44.0085V48.1371ZM67.403 36.3602C68.6334 36.3602 69.6544 36.7724 70.4662 37.5969C71.2906 38.4086 71.7029 39.4233 71.7029 40.641C71.7029 41.846 71.2906 42.8607 70.4662 43.6851C69.6544 44.5096 68.6334 44.9218 67.403 44.9218H64.3399V49.6782H62.5705V36.3602H67.403ZM67.403 43.2665C68.1387 43.2665 68.7475 43.0192 69.2295 42.5245C69.7115 42.0172 69.9525 41.3893 69.9525 40.641C69.9525 39.88 69.7115 39.2521 69.2295 38.7574C68.7475 38.2628 68.1387 38.0154 67.403 38.0154H64.3399V43.2665H67.403ZM75.0723 41.7635C75.6178 40.5839 76.6071 39.9941 78.0404 39.9941V41.7255C77.2286 41.6874 76.531 41.903 75.9475 42.3723C75.3641 42.8416 75.0723 43.5963 75.0723 44.6364V49.6782H73.4171V40.1653H75.0723V41.7635ZM80.4971 38.434C80.18 38.434 79.9136 38.3262 79.698 38.1106C79.4824 37.8949 79.3745 37.6349 79.3745 37.3305C79.3745 37.0261 79.4824 36.7661 79.698 36.5504C79.9136 36.3221 80.18 36.208 80.4971 36.208C80.8015 36.208 81.0615 36.3221 81.2771 36.5504C81.4927 36.7661 81.6006 37.0261 81.6006 37.3305C81.6006 37.6349 81.4927 37.8949 81.2771 38.1106C81.0615 38.3262 80.8015 38.434 80.4971 38.434ZM79.6599 49.6782V40.1653H81.3152V49.6782H79.6599ZM88.3115 49.9256C86.8782 49.9256 85.6859 49.4499 84.7346 48.4986C83.7833 47.5347 83.3077 46.3424 83.3077 44.9218C83.3077 43.5012 83.7833 42.3153 84.7346 41.364C85.6859 40.4 86.8782 39.918 88.3115 39.918C89.2501 39.918 90.0935 40.1463 90.8419 40.6029C91.5902 41.0469 92.1483 41.6494 92.5161 42.4104L91.1273 43.2095C90.8863 42.7021 90.5121 42.2962 90.0047 41.9918C89.5101 41.6874 88.9456 41.5352 88.3115 41.5352C87.3602 41.5352 86.5611 41.8586 85.9142 42.5055C85.28 43.1524 84.9629 43.9578 84.9629 44.9218C84.9629 45.8731 85.28 46.6722 85.9142 47.319C86.5611 47.9659 87.3602 48.2893 88.3115 48.2893C88.9456 48.2893 89.5164 48.1435 90.0238 47.8517C90.5311 47.5473 90.918 47.1415 91.1843 46.6341L92.5922 47.4522C92.1864 48.2006 91.6029 48.803 90.8419 49.2597C90.0808 49.7036 89.2374 49.9256 88.3115 49.9256ZM95.257 45.6828C95.4219 46.5326 95.8088 47.1922 96.4176 47.6615C97.0391 48.1308 97.8002 48.3654 98.7007 48.3654C99.9564 48.3654 100.87 47.9025 101.44 46.9766L102.848 47.7756C101.922 49.2089 100.527 49.9256 98.6627 49.9256C97.1533 49.9256 95.9229 49.4563 94.9717 48.5177C94.0331 47.5664 93.5638 46.3677 93.5638 44.9218C93.5638 43.4885 94.0267 42.2962 94.9526 41.3449C95.8786 40.3937 97.0772 39.918 98.5485 39.918C99.9437 39.918 101.079 40.4127 101.954 41.402C102.842 42.3787 103.286 43.5583 103.286 44.9408C103.286 45.1818 103.267 45.4291 103.229 45.6828H95.257ZM98.5485 41.4781C97.6606 41.4781 96.925 41.7318 96.3415 42.2391C95.7581 42.7338 95.3966 43.3997 95.257 44.2369H101.612C101.472 43.3363 101.117 42.6514 100.546 42.1821C99.9754 41.7128 99.3095 41.4781 98.5485 41.4781ZM118.545 48.6508C117.619 49.5006 116.42 49.9256 114.949 49.9256C113.478 49.9256 112.273 49.5006 111.334 48.6508C110.408 47.7883 109.945 46.6404 109.945 45.2072V36.3602H111.714V45.1311C111.714 46.0697 111.994 46.818 112.552 47.3761C113.11 47.9215 113.909 48.1942 114.949 48.1942C115.989 48.1942 116.788 47.9215 117.346 47.3761C117.904 46.818 118.183 46.0697 118.183 45.1311V36.3602H119.934V45.2072C119.934 46.6404 119.471 47.7883 118.545 48.6508ZM126.939 49.9256C125.696 49.9256 124.63 49.6338 123.743 49.0504C122.867 48.4669 122.252 47.6678 121.897 46.6531L123.419 45.7779C123.939 47.3888 125.125 48.1942 126.977 48.1942C127.89 48.1942 128.588 48.0103 129.07 47.6425C129.552 47.262 129.793 46.7609 129.793 46.1394C129.793 45.5052 129.552 45.0296 129.07 44.7125C128.588 44.3954 127.782 44.0593 126.654 43.7041C126.095 43.5266 125.671 43.387 125.379 43.2856C125.087 43.1714 124.719 43.0065 124.275 42.7909C123.844 42.5626 123.521 42.3343 123.305 42.106C123.089 41.865 122.893 41.5542 122.715 41.1737C122.55 40.7932 122.468 40.3619 122.468 39.88C122.468 38.7257 122.874 37.8125 123.686 37.1402C124.497 36.4553 125.487 36.1129 126.654 36.1129C127.706 36.1129 128.62 36.3792 129.393 36.9119C130.18 37.4447 130.769 38.1486 131.163 39.0238L129.679 39.88C129.108 38.5101 128.1 37.8252 126.654 37.8252C125.931 37.8252 125.347 38.0027 124.903 38.3579C124.459 38.713 124.237 39.195 124.237 39.8039C124.237 40.3873 124.447 40.8312 124.865 41.1357C125.284 41.4401 126.007 41.7572 127.034 42.0869C127.402 42.2011 127.662 42.2835 127.814 42.3343C127.966 42.385 128.201 42.4738 128.518 42.6006C128.848 42.7275 129.089 42.8289 129.241 42.9051C129.393 42.9812 129.596 43.089 129.85 43.2285C130.116 43.368 130.313 43.5012 130.44 43.628C130.567 43.7549 130.712 43.9134 130.877 44.1037C131.055 44.2812 131.182 44.4652 131.258 44.6554C131.334 44.8457 131.397 45.0676 131.448 45.3213C131.511 45.5623 131.543 45.8223 131.543 46.1014C131.543 47.2683 131.118 48.2006 130.268 48.8982C129.419 49.5831 128.309 49.9256 126.939 49.9256ZM138.74 36.3602C140.553 36.3602 142.056 37.0071 143.249 38.3008C144.454 39.5819 145.056 41.1547 145.056 43.0192C145.056 44.8837 144.454 46.4629 143.249 47.7566C142.056 49.0377 140.553 49.6782 138.74 49.6782H133.545V36.3602H138.74ZM138.74 48.004C140.097 48.004 141.207 47.5283 142.069 46.577C142.932 45.6257 143.363 44.4398 143.363 43.0192C143.363 41.5986 142.932 40.4127 142.069 39.4614C141.207 38.5101 140.097 38.0345 138.74 38.0345H135.315V48.004H138.74Z" fill="#202020"/>
<path d="M12.4626 1.16539H337.296C343.332 1.16539 348.225 6.05861 348.225 12.0947V59.2997H1.53331V12.0947C1.53331 6.0586 6.42653 1.16539 12.4626 1.16539Z" stroke="url(#paint0_linear_2136_37966)" stroke-width="2.11397"/>
</g>
<rect x="1.53331" y="1.16539" width="346.692" height="346.692" rx="9.51288" stroke="url(#paint1_linear_2136_37966)" stroke-width="2.11397"/>
<defs>
<linearGradient id="paint0_linear_2136_37966" x1="349.282" y1="30.2325" x2="0.476318" y2="30.2325" gradientUnits="userSpaceOnUse">
<stop stop-color="#B67D7B"/>
<stop offset="0.05" stop-color="#D2A3A0"/>
<stop offset="0.09" stop-color="#E7BEBA"/>
<stop offset="0.12" stop-color="#F3CFCA"/>
<stop offset="0.14" stop-color="#F8D5D0"/>
<stop offset="0.28" stop-color="#D0A09D"/>
<stop offset="0.4" stop-color="#B07574"/>
<stop offset="0.46" stop-color="#BC8A89"/>
<stop offset="0.57" stop-color="#DBC0C0"/>
<stop offset="0.69" stop-color="white"/>
<stop offset="0.83" stop-color="#F8D5D0"/>
<stop offset="0.92" stop-color="#D0A09D"/>
<stop offset="0.99" stop-color="#B07574"/>
</linearGradient>
<linearGradient id="paint1_linear_2136_37966" x1="458.327" y1="348.914" x2="382.737" y2="-186.833" gradientUnits="userSpaceOnUse">
<stop offset="0.0538232" stop-color="#C79491"/>
<stop offset="0.33" stop-color="#EED4D3"/>
<stop offset="0.42" stop-color="#F3D1D0"/>
<stop offset="0.56" stop-color="#CD9EA0"/>
<stop offset="0.709427" stop-color="#B0767B"/>
<stop offset="1" stop-color="#CC9494"/>
</linearGradient>
<clipPath id="clip0_2136_37966">
<rect x="0.476318" y="0.108398" width="348.806" height="348.806" rx="10.5699" fill="white"/>
</clipPath>
</defs>
</svg>
