<svg width="235" height="349" viewBox="0 0 235 349" fill="none" xmlns="http://www.w3.org/2000/svg">
<g clip-path="url(#clip0_2136_37954)">
<rect x="0.823975" y="0.108398" width="348.806" height="348.806" rx="10.5699" fill="#F5FAFE"/>
<path d="M12.8103 1.16539H337.643C343.679 1.16539 348.573 6.05861 348.573 12.0947V59.2997H1.88096V12.0947C1.88096 6.0586 6.77418 1.16539 12.8103 1.16539Z" fill="#E7EDF2"/>
<path d="M52.2674 13.3602H57.2332C58.5015 13.3602 59.5797 13.7914 60.4675 14.6539C61.3427 15.5164 61.7803 16.5755 61.7803 17.8312C61.7803 19.0869 61.3427 20.146 60.4675 21.0085C59.5797 21.871 58.5015 22.3023 57.2332 22.3023H54.893V26.6782H52.2674V13.3602ZM54.893 19.848H57.2332C57.7912 19.848 58.2542 19.6577 58.622 19.2772C58.9899 18.884 59.1738 18.402 59.1738 17.8312C59.1738 17.2478 58.9899 16.7658 58.622 16.3853C58.2542 16.0048 57.7912 15.8145 57.2332 15.8145H54.893V19.848ZM65.6255 17.1653V18.8016C65.8411 18.2054 66.2089 17.7551 66.7289 17.4507C67.249 17.1336 67.8451 16.9751 68.5174 16.9751V19.7148C67.769 19.6133 67.0968 19.7655 66.5006 20.1714C65.9172 20.5646 65.6255 21.2178 65.6255 22.1311V26.6782H63.1711V17.1653H65.6255ZM77.7047 25.4986C76.7408 26.4626 75.5485 26.9446 74.1279 26.9446C72.7073 26.9446 71.515 26.4626 70.551 25.4986C69.5871 24.5347 69.1051 23.3424 69.1051 21.9218C69.1051 20.5139 69.5871 19.3279 70.551 18.364C71.5277 17.3873 72.72 16.899 74.1279 16.899C75.5358 16.899 76.7281 17.3873 77.7047 18.364C78.6814 19.3406 79.1697 20.5266 79.1697 21.9218C79.1697 23.3297 78.6814 24.522 77.7047 25.4986ZM72.2824 23.8053C72.7771 24.3 73.3922 24.5473 74.1279 24.5473C74.8635 24.5473 75.4787 24.3 75.9734 23.8053C76.4681 23.3107 76.7154 22.6828 76.7154 21.9218C76.7154 21.1608 76.4681 20.5329 75.9734 20.0382C75.4787 19.5436 74.8635 19.2962 74.1279 19.2962C73.3922 19.2962 72.7771 19.5436 72.2824 20.0382C71.8004 20.5456 71.5594 21.1734 71.5594 21.9218C71.5594 22.6701 71.8004 23.298 72.2824 23.8053ZM88.1071 18.2879V13.3602H90.5614V26.6782H88.1071V25.5557C87.3841 26.4816 86.3567 26.9446 85.0249 26.9446C83.7438 26.9446 82.6467 26.4626 81.7334 25.4986C80.8329 24.522 80.3826 23.3297 80.3826 21.9218C80.3826 20.5266 80.8329 19.3406 81.7334 18.364C82.6467 17.3873 83.7438 16.899 85.0249 16.899C86.3567 16.899 87.3841 17.3619 88.1071 18.2879ZM83.5789 23.8624C84.099 24.3571 84.7332 24.6044 85.4815 24.6044C86.2425 24.6044 86.8704 24.3571 87.3651 23.8624C87.8597 23.3551 88.1071 22.7082 88.1071 21.9218C88.1071 21.1354 87.8597 20.4949 87.3651 20.0002C86.8704 19.4928 86.2425 19.2391 85.4815 19.2391C84.7205 19.2391 84.0863 19.4928 83.5789 20.0002C83.0843 20.4949 82.8369 21.1354 82.8369 21.9218C82.8369 22.7082 83.0843 23.3551 83.5789 23.8624ZM99.0845 22.3023V17.1653H101.539V26.6782H99.0845V25.6128C98.501 26.5006 97.5561 26.9446 96.2496 26.9446C95.2096 26.9446 94.3471 26.5958 93.6621 25.8982C92.9899 25.1879 92.6538 24.2239 92.6538 23.0063V17.1653H95.1081V22.7018C95.1081 23.3233 95.273 23.8053 95.6028 24.1478C95.9452 24.4903 96.4082 24.6615 96.9916 24.6615C97.6385 24.6615 98.1459 24.4649 98.5137 24.0717C98.8942 23.6658 99.0845 23.076 99.0845 22.3023ZM108.315 26.9446C106.882 26.9446 105.683 26.4626 104.719 25.4986C103.768 24.5347 103.292 23.3424 103.292 21.9218C103.292 20.5012 103.768 19.3089 104.719 18.3449C105.683 17.381 106.882 16.899 108.315 16.899C109.241 16.899 110.084 17.1209 110.845 17.5649C111.606 18.0088 112.183 18.605 112.577 19.3533L110.465 20.59C110.274 20.1968 109.983 19.886 109.59 19.6577C109.209 19.4294 108.778 19.3153 108.296 19.3153C107.56 19.3153 106.951 19.5626 106.469 20.0573C105.987 20.5392 105.746 21.1608 105.746 21.9218C105.746 22.6574 105.987 23.279 106.469 23.7863C106.951 24.2683 107.56 24.5093 108.296 24.5093C108.79 24.5093 109.228 24.4015 109.609 24.1858C110.002 23.9575 110.293 23.6468 110.484 23.2536L112.615 24.4712C112.196 25.2323 111.6 25.8347 110.826 26.2787C110.065 26.7226 109.228 26.9446 108.315 26.9446ZM119.354 17.1653V19.5245H117.204V23.4819C117.204 23.8117 117.287 24.0527 117.451 24.2049C117.616 24.3571 117.857 24.4459 118.174 24.4712C118.492 24.4839 118.885 24.4776 119.354 24.4522V26.6782C117.692 26.8685 116.507 26.7163 115.796 26.2216C115.099 25.7143 114.75 24.801 114.75 23.4819V19.5245H113.095V17.1653H114.75V15.2437L117.204 14.5017V17.1653H119.354ZM133.809 21.4842V13.3602H136.435V26.6782H134.437L128.729 18.5352V26.6782H126.104V13.3602H128.101L133.809 21.4842ZM146.021 18.2879V17.1653H148.475V26.6782H146.021V25.5557C145.285 26.4816 144.251 26.9446 142.92 26.9446C141.651 26.9446 140.56 26.4626 139.647 25.4986C138.747 24.522 138.296 23.3297 138.296 21.9218C138.296 20.5266 138.747 19.3406 139.647 18.364C140.56 17.3873 141.651 16.899 142.92 16.899C144.251 16.899 145.285 17.3619 146.021 18.2879ZM141.493 23.8624C141.987 24.3571 142.615 24.6044 143.376 24.6044C144.137 24.6044 144.765 24.3571 145.26 23.8624C145.767 23.3551 146.021 22.7082 146.021 21.9218C146.021 21.1354 145.767 20.4949 145.26 20.0002C144.765 19.4928 144.137 19.2391 143.376 19.2391C142.615 19.2391 141.987 19.4928 141.493 20.0002C140.998 20.4949 140.751 21.1354 140.751 21.9218C140.751 22.7082 140.998 23.3551 141.493 23.8624ZM161.222 16.899C162.313 16.899 163.182 17.2541 163.829 17.9644C164.488 18.6747 164.818 19.626 164.818 20.8183V26.6782H162.364V20.9895C162.364 20.4187 162.224 19.9748 161.945 19.6577C161.666 19.3406 161.273 19.1821 160.765 19.1821C160.207 19.1821 159.77 19.366 159.453 19.7338C159.148 20.1017 158.996 20.6344 158.996 21.332V26.6782H156.542V20.9895C156.542 20.4187 156.402 19.9748 156.123 19.6577C155.844 19.3406 155.451 19.1821 154.944 19.1821C154.398 19.1821 153.961 19.3723 153.631 19.7528C153.314 20.1207 153.155 20.6471 153.155 21.332V26.6782H150.701V17.1653H153.155V18.1737C153.726 17.3239 154.607 16.899 155.8 16.899C156.979 16.899 157.842 17.3556 158.387 18.2688C159.009 17.3556 159.954 16.899 161.222 16.899ZM176.149 22.9301H168.976C169.293 24.1224 170.188 24.7186 171.659 24.7186C172.597 24.7186 173.308 24.4015 173.79 23.7673L175.768 24.9088C174.83 26.266 173.447 26.9446 171.621 26.9446C170.048 26.9446 168.786 26.4689 167.835 25.5177C166.883 24.5664 166.408 23.3677 166.408 21.9218C166.408 20.5012 166.877 19.3089 167.816 18.3449C168.742 17.381 169.947 16.899 171.431 16.899C172.838 16.899 173.986 17.381 174.874 18.3449C175.787 19.3089 176.244 20.5012 176.244 21.9218C176.244 22.1881 176.212 22.5243 176.149 22.9301ZM168.938 21.0276H173.79C173.65 20.4061 173.365 19.9304 172.934 19.6006C172.515 19.2709 172.014 19.106 171.431 19.106C170.771 19.106 170.226 19.2772 169.794 19.6197C169.363 19.9494 169.078 20.4187 168.938 21.0276ZM60.829 46.1204C60.829 47.1605 60.4866 48.0166 59.8016 48.6889C59.1167 49.3611 58.2288 49.7607 57.138 49.8875V51.5808H55.9394V49.9065C54.8993 49.8304 54.0115 49.545 53.2758 49.0504C52.5528 48.5557 52.0264 47.8898 51.6967 47.0527L53.2187 46.1775C53.65 47.3571 54.5569 48.023 55.9394 48.1752V43.571C55.3686 43.368 54.9057 43.1841 54.5505 43.0192C54.2081 42.8416 53.8466 42.607 53.4661 42.3153C53.0855 42.0235 52.8002 41.6684 52.6099 41.2498C52.4323 40.8186 52.3435 40.3239 52.3435 39.7658C52.3435 38.7384 52.686 37.9013 53.3709 37.2544C54.0559 36.6075 54.912 36.2334 55.9394 36.1319V34.4576H57.138V36.1509C57.8991 36.2524 58.5776 36.5187 59.1738 36.95C59.7699 37.3812 60.2329 37.9647 60.5627 38.7004L59.0787 39.5375C58.7108 38.6116 58.064 38.0598 57.138 37.8823V42.2582C57.7215 42.4738 58.1844 42.6641 58.5269 42.8289C58.8694 42.9938 59.2435 43.2285 59.6494 43.5329C60.0553 43.8246 60.3534 44.1861 60.5436 44.6174C60.7339 45.0486 60.829 45.5496 60.829 46.1204ZM54.0939 39.7658C54.0939 40.2478 54.2398 40.641 54.5315 40.9454C54.8232 41.2498 55.2925 41.5352 55.9394 41.8016V37.8632C55.3813 37.9393 54.931 38.1486 54.5886 38.4911C54.2588 38.8209 54.0939 39.2458 54.0939 39.7658ZM57.138 48.1371C57.7469 48.0483 58.2162 47.8264 58.5459 47.4712C58.8884 47.1034 59.0596 46.6595 59.0596 46.1394C59.0596 45.6194 58.9011 45.2072 58.584 44.9028C58.2796 44.5857 57.7976 44.2876 57.138 44.0085V48.1371ZM67.7507 36.3602C68.981 36.3602 70.0021 36.7724 70.8138 37.5969C71.6383 38.4086 72.0505 39.4233 72.0505 40.641C72.0505 41.846 71.6383 42.8607 70.8138 43.6851C70.0021 44.5096 68.981 44.9218 67.7507 44.9218H64.6875V49.6782H62.9181V36.3602H67.7507ZM67.7507 43.2665C68.4864 43.2665 69.0952 43.0192 69.5772 42.5245C70.0591 42.0172 70.3001 41.3893 70.3001 40.641C70.3001 39.88 70.0591 39.2521 69.5772 38.7574C69.0952 38.2628 68.4864 38.0154 67.7507 38.0154H64.6875V43.2665H67.7507ZM75.42 41.7635C75.9654 40.5839 76.9547 39.9941 78.388 39.9941V41.7255C77.5763 41.6874 76.8786 41.903 76.2952 42.3723C75.7117 42.8416 75.42 43.5963 75.42 44.6364V49.6782H73.7648V40.1653H75.42V41.7635ZM80.8447 38.434C80.5276 38.434 80.2613 38.3262 80.0456 38.1106C79.83 37.8949 79.7222 37.6349 79.7222 37.3305C79.7222 37.0261 79.83 36.7661 80.0456 36.5504C80.2613 36.3221 80.5276 36.208 80.8447 36.208C81.1491 36.208 81.4092 36.3221 81.6248 36.5504C81.8404 36.7661 81.9482 37.0261 81.9482 37.3305C81.9482 37.6349 81.8404 37.8949 81.6248 38.1106C81.4092 38.3262 81.1491 38.434 80.8447 38.434ZM80.0076 49.6782V40.1653H81.6628V49.6782H80.0076ZM88.6591 49.9256C87.2258 49.9256 86.0336 49.4499 85.0823 48.4986C84.131 47.5347 83.6553 46.3424 83.6553 44.9218C83.6553 43.5012 84.131 42.3153 85.0823 41.364C86.0336 40.4 87.2258 39.918 88.6591 39.918C89.5977 39.918 90.4412 40.1463 91.1895 40.6029C91.9379 41.0469 92.496 41.6494 92.8638 42.4104L91.4749 43.2095C91.2339 42.7021 90.8598 42.2962 90.3524 41.9918C89.8577 41.6874 89.2933 41.5352 88.6591 41.5352C87.7078 41.5352 86.9087 41.8586 86.2619 42.5055C85.6277 43.1524 85.3106 43.9578 85.3106 44.9218C85.3106 45.8731 85.6277 46.6722 86.2619 47.319C86.9087 47.9659 87.7078 48.2893 88.6591 48.2893C89.2933 48.2893 89.8641 48.1435 90.3714 47.8517C90.8788 47.5473 91.2656 47.1415 91.532 46.6341L92.9399 47.4522C92.534 48.2006 91.9506 48.803 91.1895 49.2597C90.4285 49.7036 89.585 49.9256 88.6591 49.9256ZM95.6047 45.6828C95.7696 46.5326 96.1564 47.1922 96.7653 47.6615C97.3868 48.1308 98.1478 48.3654 99.0484 48.3654C100.304 48.3654 101.217 47.9025 101.788 46.9766L103.196 47.7756C102.27 49.2089 100.875 49.9256 99.0103 49.9256C97.5009 49.9256 96.2706 49.4563 95.3193 48.5177C94.3807 47.5664 93.9114 46.3677 93.9114 44.9218C93.9114 43.4885 94.3744 42.2962 95.3003 41.3449C96.2262 40.3937 97.4248 39.918 98.8962 39.918C100.291 39.918 101.427 40.4127 102.302 41.402C103.19 42.3787 103.634 43.5583 103.634 44.9408C103.634 45.1818 103.615 45.4291 103.576 45.6828H95.6047ZM98.8962 41.4781C98.0083 41.4781 97.2726 41.7318 96.6892 42.2391C96.1057 42.7338 95.7442 43.3997 95.6047 44.2369H101.959C101.82 43.3363 101.465 42.6514 100.894 42.1821C100.323 41.7128 99.6572 41.4781 98.8962 41.4781ZM118.892 48.6508C117.966 49.5006 116.768 49.9256 115.297 49.9256C113.825 49.9256 112.62 49.5006 111.682 48.6508C110.756 47.7883 110.293 46.6404 110.293 45.2072V36.3602H112.062V45.1311C112.062 46.0697 112.341 46.818 112.899 47.3761C113.457 47.9215 114.256 48.1942 115.297 48.1942C116.337 48.1942 117.136 47.9215 117.694 47.3761C118.252 46.818 118.531 46.0697 118.531 45.1311V36.3602H120.281V45.2072C120.281 46.6404 119.818 47.7883 118.892 48.6508ZM127.287 49.9256C126.044 49.9256 124.978 49.6338 124.09 49.0504C123.215 48.4669 122.6 47.6678 122.245 46.6531L123.767 45.7779C124.287 47.3888 125.473 48.1942 127.325 48.1942C128.238 48.1942 128.936 48.0103 129.417 47.6425C129.899 47.262 130.14 46.7609 130.14 46.1394C130.14 45.5052 129.899 45.0296 129.417 44.7125C128.936 44.3954 128.13 44.0593 127.001 43.7041C126.443 43.5266 126.018 43.387 125.726 43.2856C125.435 43.1714 125.067 43.0065 124.623 42.7909C124.192 42.5626 123.868 42.3343 123.653 42.106C123.437 41.865 123.24 41.5542 123.063 41.1737C122.898 40.7932 122.816 40.3619 122.816 39.88C122.816 38.7257 123.221 37.8125 124.033 37.1402C124.845 36.4553 125.834 36.1129 127.001 36.1129C128.054 36.1129 128.967 36.3792 129.741 36.9119C130.527 37.4447 131.117 38.1486 131.51 39.0238L130.026 39.88C129.456 38.5101 128.447 37.8252 127.001 37.8252C126.278 37.8252 125.695 38.0027 125.251 38.3579C124.807 38.713 124.585 39.195 124.585 39.8039C124.585 40.3873 124.794 40.8312 125.213 41.1357C125.631 41.4401 126.354 41.7572 127.382 42.0869C127.75 42.2011 128.01 42.2835 128.162 42.3343C128.314 42.385 128.549 42.4738 128.866 42.6006C129.196 42.7275 129.437 42.8289 129.589 42.9051C129.741 42.9812 129.944 43.089 130.198 43.2285C130.464 43.368 130.661 43.5012 130.787 43.628C130.914 43.7549 131.06 43.9134 131.225 44.1037C131.403 44.2812 131.529 44.4652 131.605 44.6554C131.682 44.8457 131.745 45.0676 131.796 45.3213C131.859 45.5623 131.891 45.8223 131.891 46.1014C131.891 47.2683 131.466 48.2006 130.616 48.8982C129.766 49.5831 128.656 49.9256 127.287 49.9256ZM139.087 36.3602C140.901 36.3602 142.404 37.0071 143.596 38.3008C144.801 39.5819 145.404 41.1547 145.404 43.0192C145.404 44.8837 144.801 46.4629 143.596 47.7566C142.404 49.0377 140.901 49.6782 139.087 49.6782H133.893V36.3602H139.087ZM139.087 48.004C140.444 48.004 141.554 47.5283 142.417 46.577C143.279 45.6257 143.71 44.4398 143.71 43.0192C143.71 41.5986 143.279 40.4127 142.417 39.4614C141.554 38.5101 140.444 38.0345 139.087 38.0345H135.663V48.004H139.087Z" fill="#202020"/>
<path d="M12.8103 1.16539H337.643C343.679 1.16539 348.573 6.05861 348.573 12.0947V59.2997H1.88096V12.0947C1.88096 6.0586 6.77418 1.16539 12.8103 1.16539Z" stroke="url(#paint0_linear_2136_37954)" stroke-width="2.11397"/>
</g>
<rect x="1.88096" y="1.16539" width="346.692" height="346.692" rx="9.51288" stroke="url(#paint1_linear_2136_37954)" stroke-width="2.11397"/>
<defs>
<linearGradient id="paint0_linear_2136_37954" x1="0.823975" y1="30.2338" x2="349.633" y2="30.2338" gradientUnits="userSpaceOnUse">
<stop stop-color="#C79491"/>
<stop offset="0.33" stop-color="#EED4D3"/>
<stop offset="0.42" stop-color="#F3D1D0"/>
<stop offset="0.56" stop-color="#CD9EA0"/>
<stop offset="0.66" stop-color="#B0767B"/>
<stop offset="1" stop-color="#CC9494"/>
</linearGradient>
<linearGradient id="paint1_linear_2136_37954" x1="458.675" y1="348.914" x2="383.084" y2="-186.833" gradientUnits="userSpaceOnUse">
<stop offset="0.0538232" stop-color="#C79491"/>
<stop offset="0.33" stop-color="#EED4D3"/>
<stop offset="0.42" stop-color="#F3D1D0"/>
<stop offset="0.56" stop-color="#CD9EA0"/>
<stop offset="0.709427" stop-color="#B0767B"/>
<stop offset="1" stop-color="#CC9494"/>
</linearGradient>
<clipPath id="clip0_2136_37954">
<rect x="0.823975" y="0.108398" width="348.806" height="348.806" rx="10.5699" fill="white"/>
</clipPath>
</defs>
</svg>
