<svg width="36" height="36" viewBox="0 0 36 36" fill="none" xmlns="http://www.w3.org/2000/svg">
<path d="M30.4299 9.14456L22.9565 16.461H21.411V14.9473L28.8843 7.63083L30.4299 9.14456Z" fill="#FBFDFF"/>
<path fill-rule="evenodd" clip-rule="evenodd" d="M2.56323 0H33.4265C34.8407 0 35.9977 1.16511 35.9977 2.59537V33.4024C35.9977 34.8326 34.8407 35.9977 33.4265 35.9977H2.56323C1.14903 35.9977 0 34.8326 0 33.4024V2.59537C0 1.16511 1.14903 0 2.56323 0ZM32.2849 8.53918L29.5014 5.8147C29.1603 5.48136 28.6059 5.48136 28.2647 5.8147L19.9166 13.9876C19.7538 14.1469 19.6602 14.3676 19.6602 14.5929V17.3139C19.6561 17.5358 19.7496 17.7576 19.9178 17.9222C20.0819 18.0828 20.3018 18.1738 20.5195 18.1738H23.3179C23.5517 18.1738 23.771 18.0845 23.9363 17.9228L32.2849 9.74994C32.4502 9.58823 32.5413 9.3734 32.5413 9.14456C32.5413 8.91572 32.4502 8.70089 32.2849 8.53918ZM28.1114 18.0787C27.9444 17.9152 27.7185 17.8241 27.4942 17.827C27.267 17.8241 27.0435 17.9158 26.8765 18.0792C26.7089 18.2433 26.6153 18.4651 26.6195 18.6834V22.7699C26.6189 23.269 26.4204 23.7378 26.0601 24.0904C25.6999 24.443 25.2207 24.638 24.7113 24.6386H17.7532C17.5659 24.6386 17.38 24.6993 17.2303 24.8096L13.064 27.8686V25.4944C13.064 25.2655 12.9728 25.0501 12.8076 24.889C12.6447 24.7296 12.42 24.6386 12.1904 24.6386H7.98655C7.50639 24.6386 7.02782 24.4383 6.66874 24.0869C6.3037 23.7296 6.09928 23.2509 6.10704 22.7705V11.8737C6.10763 11.3746 6.30609 10.9058 6.66636 10.5532C7.02662 10.2006 7.50519 10.0062 8.01517 10.0056H20.5438C21.1093 9.98576 21.4067 9.56077 21.4085 9.15154C21.4103 8.75632 21.1409 8.31907 20.545 8.29339H8.01755C7.07692 8.27938 6.13408 8.66409 5.43382 9.34886C4.73476 10.0325 4.34361 10.9449 4.35852 11.8661C4.35813 12.1451 4.3582 14.9761 4.35827 17.6893C4.35833 20.1005 4.35838 22.4186 4.35811 22.7699C4.3593 23.7255 4.73953 24.624 5.43024 25.3006C6.12036 25.9766 7.03815 26.349 8.01517 26.3502H11.3144V29.5802C11.3144 29.9066 11.4992 30.2002 11.7974 30.3461C11.9221 30.4074 12.0562 30.4372 12.1898 30.4372C12.3747 30.4372 12.5583 30.3788 12.7133 30.265L18.0454 26.3496H24.7078C25.6502 26.3624 26.5912 25.9795 27.2909 25.2941C27.9905 24.6094 28.3827 23.6882 28.3678 22.7664V18.6864C28.3726 18.4645 28.2796 18.2433 28.1114 18.0787ZM17.2344 17.3164C17.2339 17.8564 16.7993 18.1558 16.3704 18.1722H9.39859C8.96913 18.1553 8.53515 17.8558 8.53515 17.3158C8.53575 16.7752 8.97032 16.4763 9.39918 16.46H16.371C16.8005 16.4769 17.2344 16.7764 17.2344 17.3164ZM16.3704 12.381H9.39918C8.97032 12.3973 8.53575 12.6962 8.53515 13.2368C8.53515 13.7768 8.96913 14.0763 9.39859 14.0932H16.3698C16.7987 14.0769 17.2333 13.778 17.2339 13.2374C17.2339 12.6974 16.7999 12.3979 16.3704 12.381ZM23.3202 22.2602H9.39918C8.83134 22.238 8.53515 21.8124 8.53515 21.4038C8.53575 20.9945 8.83254 20.569 9.39918 20.548H23.3202C23.8022 20.548 24.1944 20.9315 24.1944 21.4038C24.1944 21.876 23.8027 22.2602 23.3202 22.2602Z" fill="#FBFDFF"/>
</svg>
