<svg width="56" height="55" viewBox="0 0 56 55" fill="none" xmlns="http://www.w3.org/2000/svg">
<path d="M30.0915 20.7117C28.3534 20.7117 26.9577 21.0125 25.9043 21.614C24.8509 22.2155 24.3242 23.3502 24.3242 25.0181C24.3242 26.4672 24.7324 27.5336 25.5488 28.2171C26.3652 28.9007 27.4054 29.2561 28.6694 29.2835L27.4449 31.9083C26.6022 31.881 25.8121 31.7032 25.0748 31.3751C24.3111 31.0744 23.6396 30.6369 23.0602 30.0627C22.4545 29.4885 21.9937 28.7776 21.6776 27.93C21.3353 27.0824 21.1641 26.0981 21.1641 24.9771C21.1641 22.4889 21.9147 20.6433 23.4157 19.4403C24.9168 18.2372 26.9182 17.6357 29.4199 17.6357L41.6654 17.6357L41.6654 37.4357H38.5053L38.5053 20.7117L30.0915 20.7117Z" fill="url(#paint0_linear_2148_36768)"/>
<path d="M27.2944 34.325C29.0945 34.325 30.5401 34.0208 31.6311 33.4124C32.7221 32.804 33.2676 31.6564 33.2676 29.9695C33.2676 28.5038 32.8448 27.4253 31.9993 26.734C31.1538 26.0427 30.0764 25.6832 28.7672 25.6555L30.0355 23.0007C30.9083 23.0284 31.7265 23.2081 32.4902 23.54C33.2812 23.8442 33.9767 24.2866 34.5768 24.8674C35.2041 25.4481 35.6814 26.1671 36.0087 27.0244C36.3633 27.8816 36.5405 28.8772 36.5405 30.011C36.5405 32.5275 35.7632 34.3941 34.2085 35.6109C32.6539 36.8277 30.581 37.436 27.9899 37.436H15.3071V17.636H18.5801V34.325H27.2944Z" fill="url(#paint1_linear_2148_36768)"/>
<path fill-rule="evenodd" clip-rule="evenodd" d="M55.8736 27.5C55.8736 42.6878 43.5807 55 28.4165 55C13.2524 55 0.959473 42.6878 0.959473 27.5C0.959473 12.3122 13.2524 0 28.4165 0C43.5807 0 55.8736 12.3122 55.8736 27.5ZM52.2127 27.5C52.2127 40.6628 41.5588 51.3333 28.4165 51.3333C15.2743 51.3333 4.62041 40.6628 4.62041 27.5C4.62041 14.3372 15.2743 3.66667 28.4165 3.66667C41.5588 3.66667 52.2127 14.3372 52.2127 27.5Z" fill="url(#paint2_linear_2148_36768)"/>
<defs>
<linearGradient id="paint0_linear_2148_36768" x1="55.8736" y1="27.5" x2="0.959473" y2="27.5" gradientUnits="userSpaceOnUse">
<stop stop-color="#B67D7B"/>
<stop offset="0.05" stop-color="#D2A3A0"/>
<stop offset="0.09" stop-color="#E7BEBA"/>
<stop offset="0.12" stop-color="#F3CFCA"/>
<stop offset="0.14" stop-color="#F8D5D0"/>
<stop offset="0.28" stop-color="#D0A09D"/>
<stop offset="0.4" stop-color="#B07574"/>
<stop offset="0.46" stop-color="#BC8A89"/>
<stop offset="0.57" stop-color="#DBC0C0"/>
<stop offset="0.69" stop-color="white"/>
<stop offset="0.83" stop-color="#F8D5D0"/>
<stop offset="0.92" stop-color="#D0A09D"/>
<stop offset="0.99" stop-color="#B07574"/>
</linearGradient>
<linearGradient id="paint1_linear_2148_36768" x1="55.8736" y1="27.5" x2="0.959473" y2="27.5" gradientUnits="userSpaceOnUse">
<stop stop-color="#B67D7B"/>
<stop offset="0.05" stop-color="#D2A3A0"/>
<stop offset="0.09" stop-color="#E7BEBA"/>
<stop offset="0.12" stop-color="#F3CFCA"/>
<stop offset="0.14" stop-color="#F8D5D0"/>
<stop offset="0.28" stop-color="#D0A09D"/>
<stop offset="0.4" stop-color="#B07574"/>
<stop offset="0.46" stop-color="#BC8A89"/>
<stop offset="0.57" stop-color="#DBC0C0"/>
<stop offset="0.69" stop-color="white"/>
<stop offset="0.83" stop-color="#F8D5D0"/>
<stop offset="0.92" stop-color="#D0A09D"/>
<stop offset="0.99" stop-color="#B07574"/>
</linearGradient>
<linearGradient id="paint2_linear_2148_36768" x1="55.8736" y1="27.5" x2="0.959473" y2="27.5" gradientUnits="userSpaceOnUse">
<stop stop-color="#B67D7B"/>
<stop offset="0.05" stop-color="#D2A3A0"/>
<stop offset="0.09" stop-color="#E7BEBA"/>
<stop offset="0.12" stop-color="#F3CFCA"/>
<stop offset="0.14" stop-color="#F8D5D0"/>
<stop offset="0.28" stop-color="#D0A09D"/>
<stop offset="0.4" stop-color="#B07574"/>
<stop offset="0.46" stop-color="#BC8A89"/>
<stop offset="0.57" stop-color="#DBC0C0"/>
<stop offset="0.69" stop-color="white"/>
<stop offset="0.83" stop-color="#F8D5D0"/>
<stop offset="0.92" stop-color="#D0A09D"/>
<stop offset="0.99" stop-color="#B07574"/>
</linearGradient>
</defs>
</svg>
