<svg width="42" height="18" viewBox="0 0 42 18" fill="none" xmlns="http://www.w3.org/2000/svg">
<path d="M40.4568 16.8536C40.5115 16.5134 40.28 16.1932 39.9398 16.1385C38.3346 15.8802 36.7308 15.5948 35.1341 15.2804C34.796 15.2139 34.468 15.434 34.4015 15.7721C34.335 16.1102 34.5551 16.4383 34.8932 16.5048C36.5048 16.8221 38.1229 17.1101 39.7417 17.3706C40.0819 17.4253 40.402 17.1939 40.4568 16.8536Z" fill="#202020"/>
<path d="M30.8292 14.9987C30.9087 14.6634 30.7014 14.3271 30.3661 14.2475C28.7771 13.8704 27.2016 13.4622 25.6455 13.0209C25.314 12.9269 24.9691 13.1194 24.8751 13.4509C24.7811 13.7825 24.9737 14.1275 25.3052 14.2215C26.8795 14.6679 28.4725 15.0807 30.0781 15.4617C30.4134 15.5413 30.7496 15.334 30.8292 14.9987Z" fill="#202020"/>
<path d="M21.3828 12.3698C21.4929 12.0433 21.3176 11.6893 20.9911 11.5791C19.4402 11.0555 17.9164 10.4953 16.4263 9.89648C16.1066 9.76799 15.7433 9.92303 15.6148 10.2428C15.4863 10.5625 15.6414 10.9259 15.9612 11.0544C17.4744 11.6625 19.0203 12.2309 20.5921 12.7614C20.9186 12.8717 21.2726 12.6963 21.3828 12.3698Z" fill="#202020"/>
<path d="M12.2649 8.77136C12.4141 8.46075 12.2833 8.08797 11.9726 7.93873C10.4949 7.2287 9.06135 6.47456 7.67928 5.67413C7.38108 5.50142 6.99936 5.60317 6.8267 5.90137C6.65403 6.19957 6.7558 6.58132 7.054 6.75402C8.46568 7.5716 9.9277 8.34062 11.4323 9.06356C11.743 9.2128 12.1157 9.08197 12.2649 8.77136Z" fill="#202020"/>
<path d="M3.7491 3.93471C3.94806 3.65336 3.88127 3.26398 3.59993 3.06498C2.93742 2.59638 2.29102 2.11462 1.66176 1.61939C1.39096 1.40627 0.9987 1.45303 0.785616 1.72382C0.572533 1.99462 0.619322 2.38692 0.890122 2.60004C1.53667 3.10887 2.20015 3.60334 2.87944 4.08381C3.16079 4.28281 3.55014 4.21605 3.7491 3.93471Z" fill="#202020"/>
<path d="M40.4568 16.8536C40.5115 16.5134 40.28 16.1932 39.9398 16.1385C38.3346 15.8802 36.7308 15.5948 35.1341 15.2804C34.796 15.2139 34.468 15.434 34.4015 15.7721C34.335 16.1102 34.5551 16.4383 34.8932 16.5048C36.5048 16.8221 38.1229 17.1101 39.7417 17.3706C40.0819 17.4253 40.402 17.1939 40.4568 16.8536Z" stroke="black" stroke-width="1.18954" stroke-miterlimit="2.16713" stroke-linecap="round"/>
<path d="M30.8292 14.9987C30.9087 14.6634 30.7014 14.3271 30.3661 14.2475C28.7771 13.8704 27.2016 13.4622 25.6455 13.0209C25.314 12.9269 24.9691 13.1194 24.8751 13.4509C24.7811 13.7825 24.9737 14.1275 25.3052 14.2215C26.8795 14.6679 28.4725 15.0807 30.0781 15.4617C30.4134 15.5413 30.7496 15.334 30.8292 14.9987Z" stroke="black" stroke-width="1.18954" stroke-miterlimit="2.16713" stroke-linecap="round"/>
<path d="M21.3828 12.3698C21.4929 12.0433 21.3176 11.6893 20.9911 11.5791C19.4402 11.0555 17.9164 10.4953 16.4263 9.89648C16.1066 9.76799 15.7433 9.92303 15.6148 10.2428C15.4863 10.5625 15.6414 10.9259 15.9612 11.0544C17.4744 11.6625 19.0203 12.2309 20.5921 12.7614C20.9186 12.8717 21.2726 12.6963 21.3828 12.3698Z" stroke="black" stroke-width="1.18954" stroke-miterlimit="2.16713" stroke-linecap="round"/>
<path d="M12.2649 8.77136C12.4141 8.46075 12.2833 8.08797 11.9726 7.93873C10.4949 7.2287 9.06135 6.47456 7.67928 5.67413C7.38108 5.50142 6.99936 5.60317 6.8267 5.90137C6.65403 6.19957 6.7558 6.58132 7.054 6.75402C8.46568 7.5716 9.9277 8.34062 11.4323 9.06356C11.743 9.2128 12.1157 9.08197 12.2649 8.77136Z" stroke="black" stroke-width="1.18954" stroke-miterlimit="2.16713" stroke-linecap="round"/>
<path d="M3.7491 3.93471C3.94806 3.65336 3.88127 3.26398 3.59993 3.06498C2.93742 2.59638 2.29102 2.11462 1.66176 1.61939C1.39096 1.40627 0.9987 1.45303 0.785616 1.72382C0.572533 1.99462 0.619322 2.38692 0.890122 2.60004C1.53667 3.10887 2.20015 3.60334 2.87944 4.08381C3.16079 4.28281 3.55014 4.21605 3.7491 3.93471Z" stroke="black" stroke-width="1.18954" stroke-miterlimit="2.16713" stroke-linecap="round"/>
</svg>
