<svg width="22" height="24" viewBox="0 0 22 24" fill="none" xmlns="http://www.w3.org/2000/svg">
<path d="M21.6363 5.11643C21.7598 5.17501 21.8653 5.27249 21.9314 5.4017C21.9347 5.40783 21.9377 5.41396 21.9407 5.42031C21.947 5.43384 21.9529 5.4478 21.9585 5.46175C21.9882 5.53915 22.0014 5.61866 21.9999 5.69691V10.1052C21.9999 10.4541 21.71 10.7368 21.3527 10.7368C20.9955 10.7368 20.7056 10.4541 20.7056 10.1052V6.70605L17.7599 8.14384C17.4401 8.2999 17.0514 8.17344 16.8918 7.86131C16.7319 7.5494 16.8614 7.17 17.181 7.01398L19.906 5.68431L17.181 4.35441C16.8614 4.19835 16.7319 3.81898 16.8918 3.50708C17.0514 3.19517 17.4401 3.06871 17.7599 3.22456L21.6363 5.11643ZM21.9999 18.3033C22.0018 18.3959 21.9828 18.4904 21.9407 18.5799C21.9089 18.6472 21.8653 18.7087 21.8116 18.7613C21.7572 18.8142 21.6989 18.854 21.6363 18.8838L17.7598 20.7755C17.4401 20.9316 17.0514 20.8052 16.8917 20.4932C16.7318 20.1811 16.8614 19.8018 17.181 19.6459L19.906 18.316L17.181 16.9861C16.8614 16.8303 16.7318 16.4509 16.8917 16.1388C17.0514 15.8269 17.4401 15.7004 17.7598 15.8565L20.7056 17.2941V13.8949C20.7056 13.5462 20.9954 13.2635 21.3527 13.2635C21.7099 13.2635 21.9998 13.5462 21.9998 13.8949L21.9999 18.3033ZM2.09405 18.316L4.81884 19.6459C5.13861 19.8017 5.26816 20.1811 5.10828 20.4932C4.94839 20.8051 4.55973 20.9316 4.24019 20.7755L0.363684 18.8838C0.240192 18.825 0.134687 18.7277 0.0683936 18.5985C0.0653605 18.5924 0.0623279 18.586 0.0592952 18.5799C0.0530125 18.5663 0.046946 18.5524 0.0415301 18.5384C0.0116329 18.461 -0.00158281 18.3815 0.000150374 18.3033V13.8948C0.000150374 13.5461 0.289811 13.2634 0.647279 13.2634C1.00453 13.2634 1.29419 13.5461 1.29419 13.8948V17.2939L4.24015 15.8564C4.55971 15.7003 4.9484 15.8267 5.10824 16.1387C5.26813 16.4508 5.13857 16.8301 4.8188 16.986L2.09405 18.316ZM1.29418 6.70609V10.1052C1.29418 10.4541 1.00452 10.7369 0.647272 10.7369C0.289803 10.7369 0.000142758 10.4541 0.000142758 10.1052V5.69695C-0.00180706 5.60412 0.0170409 5.5098 0.0592868 5.42035C0.0909172 5.3531 0.134682 5.29156 0.188408 5.23891C0.242787 5.18604 0.300846 5.14629 0.363679 5.11647L4.24018 3.22449C4.55974 3.06863 4.94843 3.19509 5.10827 3.50701C5.26816 3.81892 5.13861 4.19832 4.81883 4.35434L2.09404 5.68423L4.81883 7.01391C5.1386 7.16997 5.26816 7.54934 5.10827 7.86124C4.94839 8.17336 4.55972 8.29982 4.24018 8.14376L1.29418 6.70609ZM10.6988 0.0723196C10.7888 0.0260083 10.8912 0 10.9998 0C11.1085 0 11.211 0.0260105 11.3009 0.0723196L15.1715 1.96138C15.4911 2.11744 15.6207 2.49681 15.461 2.80871C15.3011 3.12062 14.9124 3.24708 14.5929 3.09123L11.6469 1.65345V5.05256C11.6469 5.40127 11.3573 5.68421 10.9998 5.68421C10.6425 5.68421 10.3529 5.40127 10.3529 5.05256V1.65345L7.40692 3.09123C7.08737 3.24708 6.69868 3.12062 6.53884 2.80871C6.37895 2.4968 6.5085 2.1174 6.82828 1.96138L10.6988 0.0723196ZM11.3009 23.9277C11.211 23.9738 11.1085 24 10.9997 24C10.8912 24 10.7887 23.9738 10.6988 23.9277L6.82819 22.0386C6.50842 21.8826 6.37886 21.5032 6.53875 21.1913C6.69863 20.8792 7.0873 20.7527 7.40684 20.9088L10.3528 22.3466V18.9474C10.3528 18.5985 10.6425 18.3158 10.9997 18.3158C11.3572 18.3158 11.6468 18.5985 11.6468 18.9474V22.3466L14.5928 20.9088C14.9124 20.7527 15.3011 20.8792 15.4609 21.1913C15.6206 21.5032 15.491 21.8826 15.1715 22.0386L11.3009 23.9277ZM11.6469 11.1273V14.5265C11.6469 14.8752 11.3572 15.1581 10.9997 15.1581C10.6425 15.1581 10.3528 14.8752 10.3528 14.5265V11.1273L6.82818 9.40707C6.50841 9.25122 6.37885 8.87185 6.53874 8.55974C6.69862 8.24783 7.08729 8.12137 7.40683 8.27744L10.9997 10.0309L14.5928 8.27744C14.9124 8.12137 15.301 8.24783 15.4609 8.55974C15.6206 8.87187 15.491 9.25121 15.1714 9.40707L11.6469 11.1273Z" fill="#FBFDFF"/>
</svg>
