<svg width="111" height="71" viewBox="0 0 111 71" fill="none" xmlns="http://www.w3.org/2000/svg">
<path fill-rule="evenodd" clip-rule="evenodd" d="M56.1157 65.0514C54.5629 65.5981 52.8948 66.0547 51.2211 66.438C50.8852 66.515 50.6753 66.8496 50.7523 67.1855C50.8292 67.5214 51.1639 67.7314 51.4998 67.6545C53.2055 67.2638 54.9211 66.795 56.5302 66.2284C56.8553 66.114 57.0259 65.7577 56.9115 65.4327C56.797 65.1076 56.4407 64.9369 56.1157 65.0514ZM46.9088 67.9187C46.8542 67.5785 46.5342 67.3469 46.1939 67.4014C45.3035 67.5441 44.4509 67.6684 43.6568 67.7778C42.904 67.8814 42.1028 67.9804 41.2568 68.0735C40.9143 68.1112 40.6672 68.4194 40.7049 68.762C40.7426 69.1045 41.0509 69.3516 41.3934 69.3139C42.2497 69.2197 43.0622 69.1193 43.8271 69.014C44.6282 68.9037 45.4901 68.7781 46.3915 68.6336C46.7318 68.5791 46.9633 68.259 46.9088 67.9187ZM60.4571 63.7837C60.6456 64.0722 61.0322 64.1532 61.3207 63.9647C62.1186 63.4432 62.8311 62.8646 63.4191 62.2207C64.0544 61.5251 64.5139 60.855 64.7936 60.2046C64.9298 59.8881 64.7836 59.521 64.467 59.3848C64.1505 59.2486 63.7835 59.3948 63.6473 59.7114C63.4385 60.1969 63.0708 60.7516 62.4977 61.3791C61.9955 61.9289 61.3692 62.4422 60.638 62.9201C60.3495 63.1086 60.2685 63.4953 60.4571 63.7837ZM37.0594 69.0835C37.0355 68.7397 36.7375 68.4804 36.3937 68.5042C34.8534 68.611 33.2218 68.6986 31.5126 68.7627C31.1682 68.7756 30.8996 69.0652 30.9125 69.4095C30.9254 69.7539 31.215 70.0226 31.5594 70.0097C33.2814 69.9452 34.9262 69.8569 36.4801 69.7491C36.8239 69.7253 37.0832 69.4273 37.0594 69.0835ZM27.2596 69.4941C27.2563 69.1495 26.9744 68.8727 26.6298 68.8759C25.0465 68.8907 23.4154 68.8851 21.7454 68.8563C21.4009 68.8504 21.1168 69.1249 21.1109 69.4694C21.105 69.814 21.3795 70.0981 21.724 70.104C23.4052 70.133 25.0473 70.1387 26.6416 70.1238C26.9861 70.1206 27.2628 69.8386 27.2596 69.4941ZM63.3441 56.5264C63.5379 56.2415 63.4641 55.8534 63.1792 55.6595C62.0904 54.9188 60.6035 54.326 58.9116 53.8314C58.5809 53.7347 58.2344 53.9244 58.1377 54.2552C58.0411 54.5859 58.2308 54.9324 58.5616 55.0291C60.2068 55.5102 61.5479 56.0589 62.4773 56.6913C62.7622 56.8851 63.1503 56.8113 63.3441 56.5264ZM17.4559 69.3584C17.4709 69.0141 17.2039 68.7229 16.8597 68.7079C15.2553 68.638 13.6252 68.5461 11.9761 68.43C11.6323 68.4058 11.3341 68.6649 11.3099 69.0086C11.2858 69.3524 11.5448 69.6506 11.8886 69.6748C13.5491 69.7918 15.1904 69.8843 16.8055 69.9546C17.1497 69.9696 17.4409 69.7027 17.4559 69.3584ZM7.67041 68.702C7.70413 68.3591 7.45347 68.0537 7.11055 68.0199C5.50125 67.8615 3.88097 67.6789 2.25584 67.4703C1.91406 67.4264 1.60145 67.6679 1.55761 68.0097C1.51376 68.3515 1.75529 68.6642 2.09707 68.7081C3.73487 68.9183 5.36739 69.1023 6.98842 69.2618C7.33135 69.2956 7.63669 69.0449 7.67041 68.702ZM55.0071 53.5329C55.0718 53.1945 54.8498 52.8676 54.5114 52.8029C53.0849 52.5303 51.5908 52.2876 50.0866 52.0627C49.7458 52.0118 49.4282 52.2468 49.3773 52.5876C49.3264 52.9284 49.5614 53.246 49.9022 53.2969C51.3972 53.5204 52.8732 53.7603 54.2772 54.0287C54.6157 54.0934 54.9425 53.8714 55.0071 53.5329ZM46.1939 52.1407C46.2407 51.7993 46.0019 51.4846 45.6605 51.4378C44.1228 51.2269 42.6344 51.0225 41.2525 50.8103C40.9119 50.758 40.5934 50.9917 40.5411 51.3324C40.4889 51.673 40.7226 51.9915 41.0632 52.0438C42.4568 52.2578 43.9554 52.4635 45.4911 52.6741C45.8325 52.7209 46.1472 52.4821 46.1939 52.1407ZM37.3769 50.7574C37.4572 50.4223 37.2507 50.0855 36.9156 50.0052C36.1023 49.8103 35.4203 49.6053 34.8887 49.3867C34.0475 49.0409 33.2681 48.6741 32.5485 48.2884C32.2448 48.1257 31.8666 48.2399 31.7039 48.5436C31.5411 48.8474 31.6554 49.2256 31.9591 49.3883C32.7189 49.7956 33.5369 50.1802 34.4144 50.5409C35.0295 50.7938 35.7805 51.0164 36.6248 51.2188C36.9599 51.2991 37.2967 51.0925 37.3769 50.7574ZM28.4557 46.1948C28.7017 45.9535 28.7055 45.5584 28.4642 45.3124C27.1917 44.0147 26.3465 42.6045 25.8766 41.1193C25.7726 40.7907 25.422 40.6086 25.0935 40.7125C24.765 40.8165 24.5829 41.1671 24.6869 41.4956C25.2203 43.1817 26.1741 44.7592 27.5734 46.1861C27.8146 46.4322 28.2097 46.436 28.4557 46.1948ZM24.8641 36.7127C25.2041 36.7687 25.5251 36.5384 25.5811 36.1984C25.8355 34.6522 26.3907 33.0489 27.2266 31.4195C27.3839 31.1129 27.2629 30.7368 26.9563 30.5795C26.6497 30.4221 26.2737 30.5431 26.1164 30.8497C25.2321 32.5734 24.6288 34.3001 24.3498 35.9957C24.2938 36.3357 24.5241 36.6567 24.8641 36.7127ZM109.958 8.50887C110.289 8.41081 110.477 8.06351 110.379 7.73315C110.168 7.02145 109.745 6.37245 109.192 5.78873C108.955 5.53857 108.56 5.5279 108.31 5.7649C108.06 6.0019 108.049 6.39683 108.286 6.64699C108.744 7.13023 109.042 7.61341 109.183 8.08827C109.281 8.41862 109.628 8.60694 109.958 8.50887ZM29.162 27.2218C29.4319 27.4361 29.8244 27.391 30.0386 27.1211C31.0569 25.8381 32.23 24.5618 33.5441 23.308C33.7934 23.0701 33.8027 22.6751 33.5648 22.4258C33.3269 22.1765 32.932 22.1672 32.6827 22.405C31.3314 23.6944 30.1187 25.0128 29.0612 26.3452C28.847 26.6151 28.8921 27.0076 29.162 27.2218ZM106 4.24141C106.149 3.93094 106.019 3.55803 105.708 3.40851C104.539 2.84531 103.227 2.35822 101.86 1.95715C101.53 1.86009 101.183 2.04945 101.086 2.3801C100.989 2.71075 101.178 3.05748 101.509 3.15454C102.823 3.54031 104.07 4.0045 105.167 4.53283C105.477 4.68235 105.85 4.55188 106 4.24141ZM98.3874 1.76831C98.4432 1.42825 98.2127 1.10736 97.8727 1.05158C97.189 0.939428 96.5095 0.849763 95.8439 0.784091C95.0248 0.703256 94.1946 0.644203 93.3546 0.605959C93.0103 0.590294 92.7186 0.856656 92.703 1.2009C92.6873 1.54515 92.9537 1.83692 93.2979 1.85259C94.117 1.88987 94.9252 1.94741 95.7215 2.02598C96.3594 2.08893 97.0124 2.17504 97.6708 2.28304C98.0108 2.33882 98.3317 2.10837 98.3874 1.76831ZM36.6246 19.8166C36.8346 20.0899 37.2263 20.1412 37.4995 19.9313C38.8338 18.9061 40.2604 17.9091 41.7703 16.95C42.0611 16.7653 42.1472 16.3797 41.9624 16.0888C41.7776 15.7979 41.3921 15.7119 41.1012 15.8966C39.5614 16.8747 38.1042 17.8929 36.7392 18.9417C36.466 19.1516 36.4147 19.5433 36.6246 19.8166ZM89.0225 1.20681C89.0071 0.862542 88.7157 0.595869 88.3714 0.611177C86.7432 0.683596 85.0884 0.821997 83.4148 1.0204C83.0726 1.06097 82.8281 1.37127 82.8687 1.71348C82.9093 2.05569 83.2196 2.30021 83.5618 2.25965C85.2074 2.06456 86.8316 1.92883 88.427 1.85787C88.7712 1.84256 89.0378 1.55107 89.0225 1.20681ZM45.4428 14.0708C45.6039 14.3754 45.9815 14.4917 46.286 14.3306C47.0483 13.9272 47.8262 13.5339 48.6188 13.1516C49.3508 12.7985 50.0904 12.4498 50.8367 12.106C51.1496 11.9619 51.2865 11.5913 51.1423 11.2783C50.9981 10.9653 50.6275 10.8284 50.3145 10.9726C49.5615 11.3194 48.8153 11.6713 48.0766 12.0276C47.2702 12.4166 46.4785 12.8169 45.7024 13.2275C45.3978 13.3887 45.2816 13.7662 45.4428 14.0708ZM54.5127 9.79764C54.6457 10.1156 55.0112 10.2655 55.3291 10.1326C56.8316 9.50428 58.3536 8.8994 59.8889 8.32238C60.2115 8.20116 60.3747 7.84139 60.2534 7.51881C60.1322 7.19624 59.7724 7.033 59.4499 7.15422C57.8999 7.73673 56.3639 8.34722 54.8476 8.98128C54.5297 9.11421 54.3798 9.47971 54.5127 9.79764ZM79.2283 2.26347C79.1668 1.92441 78.842 1.69946 78.503 1.76102C76.8925 2.05344 75.2716 2.39449 73.6467 2.77925C73.3114 2.85864 73.1039 3.19485 73.1833 3.53018C73.2628 3.86551 73.599 4.07299 73.9343 3.99359C75.5391 3.6136 77.1385 3.27712 78.726 2.98886C79.065 2.9273 79.2899 2.60253 79.2283 2.26347ZM63.7232 6.28959C63.8319 6.61661 64.1851 6.79361 64.5121 6.68494C66.0679 6.16789 67.6309 5.68314 69.1951 5.23505C69.5264 5.14016 69.718 4.79468 69.6231 4.46339C69.5282 4.13211 69.1827 3.94048 68.8514 4.03537C67.2697 4.48846 65.6901 4.97839 64.1185 5.5007C63.7915 5.60937 63.6145 5.96257 63.7232 6.28959Z" fill="#202020" stroke="black" stroke-width="1.18954" stroke-miterlimit="2.16713" stroke-linecap="round"/>
</svg>
