<svg width="24" height="24" viewBox="0 0 24 24" fill="none" xmlns="http://www.w3.org/2000/svg">
<path d="M2.88834 2.88828C4.82465 0.951964 7.37615 0 9.89531 0C12.4145 0 14.966 0.951964 16.9023 2.88828C18.8386 4.8246 19.7906 7.37615 19.7906 9.89531C19.7906 11.741 19.2984 13.5801 18.2817 15.2121L23.3847 20.3152C23.8121 20.7426 24 21.2995 24 21.85C24 22.4004 23.8186 22.9574 23.3847 23.3848C22.9573 23.7863 22.4004 24 21.8499 24C21.2995 24 20.7425 23.7863 20.3151 23.3848L15.2121 18.2558C13.5801 19.2984 11.741 19.7906 9.89531 19.7906C7.37615 19.7906 4.82465 18.8386 2.88834 16.9023C0.984402 14.966 0 12.4468 0 9.89531C0 7.34377 0.984402 4.8246 2.88834 2.88828ZM17.5111 16.2288C17.3556 16.4101 17.2067 16.5979 17.0513 16.7534L17.0189 16.7857L16.9865 16.8181L16.9541 16.8505L16.8894 16.9088L16.8311 16.9671L16.7987 16.9995L16.7663 17.0318L16.734 17.0642C16.5786 17.2197 16.3972 17.3686 16.2094 17.524L21.1894 22.504C21.3707 22.6595 21.5909 22.7501 21.837 22.7501C22.0831 22.7501 22.2968 22.6595 22.4846 22.504C22.64 22.3227 22.7307 22.0766 22.7307 21.8565C22.7307 21.6104 22.64 21.3967 22.4846 21.2089L17.5046 16.2288H17.5111ZM9.88883 1.26281C7.67404 1.26281 5.46572 2.12412 3.80139 3.78197C2.11116 5.47221 1.2499 7.68699 1.2499 9.89531C1.2499 12.1036 2.11116 14.3184 3.80139 16.0086C5.45924 17.6989 7.67404 18.5278 9.88883 18.5278C12.1036 18.5278 14.2537 17.7312 15.9115 16.0669H15.9438L15.9763 16.0022H16.0086L16.041 15.9698L16.0734 15.9115H16.1057C17.7312 14.2536 18.5342 12.0712 18.5342 9.88882C18.5342 7.70642 17.7053 5.46572 16.0151 3.77549C14.3248 2.11764 12.1101 1.25634 9.90179 1.25634L9.88883 1.26281Z" fill="white"/>
</svg>
