<svg width="19" height="24" viewBox="0 0 19 24" fill="none" xmlns="http://www.w3.org/2000/svg">
<path d="M3.16821 6.31171H5.07319V4.41238C5.07319 3.21723 5.56559 2.11251 6.36252 1.3179C7.15945 0.490978 8.26728 0 9.49831 0C10.7293 0 11.8373 0.490978 12.6343 1.3179C13.4312 2.11251 13.9236 3.21723 13.9236 4.41238V6.31171H15.8284C16.1329 6.31171 16.4117 6.5572 16.444 6.86083L18.9968 23.2635C19.0292 23.6318 18.8153 23.9354 18.446 24H0.615483C0.27857 24 0 23.7222 0 23.354V23.2312L2.5203 6.86083C2.57861 6.5572 2.85722 6.31171 3.16821 6.31171ZM13.2822 8.21103C13.9884 8.21103 14.5715 8.76017 14.5715 9.4708C14.5715 9.92948 14.2929 10.3623 13.9236 10.5755V10.7306C13.9236 11.958 13.4312 13.0627 12.6343 13.8573C11.8373 14.652 10.7293 15.1752 9.49831 15.1752C8.26728 15.1752 7.15945 14.652 6.36252 13.8573C5.56559 13.0627 5.07319 11.958 5.07319 10.7306V10.5755C4.67148 10.3623 4.42528 9.92948 4.42528 9.4708C4.42528 8.76663 4.97597 8.21103 5.68867 8.21103C6.40137 8.21103 6.95207 8.76017 6.95207 9.4708C6.95207 9.92948 6.70589 10.3623 6.33658 10.5755V10.7306C6.33658 11.6221 6.67345 12.4167 7.25657 12.9658C7.83968 13.5472 8.61067 13.8832 9.49831 13.8832C10.3859 13.8832 11.1571 13.5472 11.7402 12.9658C12.2909 12.4167 12.6602 11.6156 12.6602 10.7306V10.5755C12.2585 10.3623 12.0123 9.92948 12.0123 9.4708C12.0123 8.76663 12.5954 8.21103 13.2757 8.21103H13.2822ZM11.7467 2.20296C11.1636 1.62154 10.36 1.2533 9.5048 1.2533C8.64955 1.2533 7.84617 1.62154 7.26305 2.20296C6.67993 2.75209 6.34307 3.55316 6.34307 4.41238V6.31171H12.6797V4.41238C12.6797 3.55316 12.3102 2.75855 11.7595 2.20296H11.7467ZM15.2843 7.565H3.69306L1.35419 22.7402H17.6166L15.2778 7.565H15.2843Z" fill="#FBFDFF"/>
</svg>
